<?xml version="1.0" standalone="no"?>
<!DOCTYPE svg PUBLIC "-//W3C//DTD SVG 1.1//EN" "http://www.w3.org/Graphics/SVG/1.1/DTD/svg11.dtd" >
<svg xmlns="http://www.w3.org/2000/svg">
<metadata></metadata>
<defs>
<font id="univers_75_blackregular" horiz-adv-x="1366" >
<font-face units-per-em="2048" ascent="1638" descent="-410" />
<missing-glyph horiz-adv-x="682" />
<glyph horiz-adv-x="2048" />
<glyph horiz-adv-x="2048" />
<glyph unicode="&#xd;" horiz-adv-x="682" />
<glyph unicode=" "  horiz-adv-x="682" />
<glyph unicode="&#x09;" horiz-adv-x="682" />
<glyph unicode="&#xa0;" horiz-adv-x="682" />
<glyph unicode="!" horiz-adv-x="909" d="M233 1479h445l-74 -1039h-295zM268 0v307h369v-307h-369z" />
<glyph unicode="&#x22;" horiz-adv-x="1024" d="M203 924v555h243v-555h-243zM578 924v555h243v-555h-243z" />
<glyph unicode="#" d="M188 446v185h230l26 180h-198v184h223l59 422h177l-60 -422h174l58 422h182l-62 -422h181v-184h-207l-23 -180h178v-185h-204l-66 -446h-178l61 446h-170l-63 -446h-178l63 446h-203zM596 631h170l27 180h-172z" />
<glyph unicode="$" d="M59 446h400q4 -186 133 -210v342q-252 61 -342 116q-166 99 -166 293q0 414 508 461v194h164v-194q504 -31 504 -438v-13h-400v13q0 77 -49 127q-18 24 -55 34v-303q4 -2 24 -6q262 -61 363 -127q166 -106 166 -323q0 -215 -170 -332q-146 -98 -383 -111v-194h-164v194 q-246 19 -373 115q-153 117 -160 362zM483 1036q0 -73 109 -116v251q-109 -34 -109 -135zM756 236q139 18 153 145q2 10 2 20q0 52 -34 80q-31 25 -121 51v-296z" />
<glyph unicode="%" horiz-adv-x="2048" d="M127 1028q0 420 354 420q355 0 355 -420t-355 -420q-354 0 -354 420zM393 1028q0 -27 2 -125q17 -110 86 -110q70 0 86 110l2 125q0 25 -2 123q-16 113 -86 113q-69 0 -86 -113zM545 0l721 1448h213l-715 -1448h-219zM1212 389q0 420 355 420q354 0 354 -420t-354 -420 q-355 0 -355 420zM1479 389q0 -27 2 -125q16 -110 86 -110q69 0 86 110l2 125q0 25 -2 123q-17 113 -86 113q-70 0 -86 -113z" />
<glyph unicode="&#x26;" horiz-adv-x="1821" d="M92 406q0 266 346 397q-205 166 -205 358q0 185 191 277q149 71 356 71q238 0 385 -71q189 -92 189 -291q0 -117 -105 -227q-63 -70 -200 -164l211 -209q106 160 106 268h354q-12 -127 -69 -270q-68 -166 -154 -228l301 -317h-498l-86 96q-202 -127 -520 -127 q-241 0 -405 97q-197 114 -197 340zM522 379q0 -64 80 -107q72 -36 148 -36q151 0 229 77l-274 271q-105 -54 -127 -76q-56 -47 -56 -129zM643 1157q0 -37 55 -100q41 -41 82 -84q164 102 164 184q0 127 -164 127q-53 0 -90 -27q-47 -34 -47 -100z" />
<glyph unicode="'" horiz-adv-x="682" d="M219 924v555h244v-555h-244z" />
<glyph unicode="(" horiz-adv-x="682" d="M102 641q0 195 74 428q29 94 152 410h252q-88 -291 -117 -414q-53 -234 -53 -424q0 -184 55 -424q29 -121 117 -414h-254q-123 316 -152 410q-74 233 -74 428z" />
<glyph unicode=")" horiz-adv-x="682" d="M100 1479h254q123 -316 154 -410q72 -233 72 -428t-72 -428q-31 -94 -154 -410h-252q88 291 117 414q53 234 53 424q0 184 -55 424q-29 121 -117 414z" />
<glyph unicode="*" horiz-adv-x="1139" d="M170 901v260l281 -61l4 4l-193 211l219 131l92 -281l84 283l224 -139l-191 -205l4 -4l277 61v-264l-271 64l-4 -5l195 -221l-234 -125l-90 277l-88 -279l-219 129l191 219l-5 5z" />
<glyph unicode="+" horiz-adv-x="1352" d="M160 391v246h393v391h246v-391h393v-246h-393v-391h-246v391h-393z" />
<glyph unicode="," horiz-adv-x="682" d="M82 -240l135 547h385l-242 -547h-278z" />
<glyph unicode="-" horiz-adv-x="682" d="M51 424v246h582v-246h-582z" />
<glyph unicode="." horiz-adv-x="682" d="M158 0v307h368v-307h-368z" />
<glyph unicode="/" horiz-adv-x="569" d="M-102 -197l493 1676h283l-494 -1676h-282z" />
<glyph unicode="0" d="M70 709q0 321 143 518q162 221 471 221t471 -221q143 -197 143 -518q0 -322 -143 -519q-162 -221 -471 -221t-471 221q-143 197 -143 519zM469 709q0 -201 25 -293q47 -180 190 -180t190 180q25 92 25 293q0 200 -25 292q-47 181 -190 181t-190 -181q-25 -92 -25 -292z " />
<glyph unicode="1" d="M262 874v316q230 72 410 227h325v-1417h-389v1051q-196 -127 -346 -177z" />
<glyph unicode="2" d="M72 0v266q49 49 276 226q221 172 324 278q157 160 157 270q0 142 -176 142q-65 0 -108 -47.5t-45 -108.5h-400q9 223 189 332q149 90 401 90q223 0 367 -84q172 -100 172 -301q0 -145 -174 -350q-123 -146 -324 -307q-86 -68 -174 -140h676v-266h-1161z" />
<glyph unicode="3" d="M49 410h400q0 -84 61 -131q55 -43 141 -43q90 0 152 40q71 50 71 136q0 141 -149 176q-47 10 -260 10v266q197 0 252 17q129 37 129 180q0 57 -64 92q-55 29 -125 29q-73 0 -122 -39q-50 -41 -50 -103h-399q4 205 190 316q158 92 390 92q225 0 376 -70q203 -94 203 -293 q0 -129 -98 -223t-232 -112v-7q162 -20 256 -110q103 -96 103 -254q0 -213 -207 -322q-166 -88 -399 -88q-570 0 -619 441z" />
<glyph unicode="4" d="M35 272v267l600 878h469v-878h215v-267h-215v-272h-395v272h-674zM381 539h334l-4 526z" />
<glyph unicode="5" d="M100 406h392q2 -80 53 -125q49 -45 127 -45q98 0 147 79q43 66 43 170q0 222 -194 222q-56 0 -99 -35q-45 -37 -53 -90h-393l29 835h1024v-266h-668l-25 -354l4 -4q119 180 338 180q201 0 322 -139q115 -132 115 -336q0 -244 -148 -385q-149 -144 -395 -144 q-604 0 -619 437z" />
<glyph unicode="6" d="M68 694q0 334 143 529q166 225 496 225q215 0 348 -84q155 -98 164 -295h-375q-4 53 -60 86q-47 27 -106 27q-141 0 -184 -142q-19 -57 -27 -256l4 -4q94 176 350 176q213 0 346 -127t133 -342q0 -247 -182 -389q-166 -129 -422 -129q-309 0 -477 213q-151 195 -151 512z M481 473q0 -113 60 -174q57 -63 159 -63q103 0 162 63q60 61 60 174t-60 176q-59 62 -162 62q-102 0 -159 -62q-60 -63 -60 -176z" />
<glyph unicode="7" d="M111 1130v287h1128v-287l-534 -1130h-375l547 1130h-766z" />
<glyph unicode="8" d="M66 379q0 158 116 258q103 88 269 111v6q-140 20 -234 104q-102 94 -102 227q0 197 196 291q150 72 373 72q236 0 381 -72q188 -92 188 -291q0 -127 -100 -225q-94 -90 -219 -108v-11q160 -16 260 -106q109 -98 109 -256q0 -225 -228 -330q-170 -80 -430 -80 q-219 0 -383 94q-196 113 -196 316zM465 430q0 -96 61 -145q62 -49 158 -49t157.5 49t61.5 145t-61 145q-62 50 -158 50t-158 -50q-61 -49 -61 -145zM494 1047q0 -82 53 -129q51 -48 137 -48t139 48q51 47 51 129q0 81 -51 129q-53 47 -139 47t-137 -47q-53 -48 -53 -129z " />
<glyph unicode="9" d="M66 958q0 242 186 373q164 117 420 117q631 0 631 -754q0 -30 -3 -63q-4 -137 -67 -287q-57 -135 -125 -201q-107 -104 -205 -139q-100 -35 -268 -35q-221 0 -365 86q-178 105 -182 310h377q6 -129 184 -129q166 0 217 141q25 67 35 276l-4 4q-117 -147 -340 -147 q-205 0 -344 121q-147 127 -147 327zM444 969q0 -213 222 -213q102 0 165 69q56 62 56 144q0 100 -60 157q-59 56 -161 56q-103 0 -162 -58q-60 -57 -60 -155z" />
<glyph unicode=":" horiz-adv-x="682" d="M158 0v307h368v-307h-368zM158 721v307h368v-307h-368z" />
<glyph unicode=";" horiz-adv-x="682" d="M82 -240l135 547h385l-242 -547h-278zM184 721v307h369v-307h-369z" />
<glyph unicode="&#x3c;" horiz-adv-x="1352" d="M160 412v204l1032 461v-262l-723 -303l723 -299v-262z" />
<glyph unicode="=" horiz-adv-x="1352" d="M160 190v246h1032v-246h-1032zM160 592v246h1032v-246h-1032z" />
<glyph unicode="&#x3e;" horiz-adv-x="1352" d="M160 -49v262l723 303l-723 299v262l1032 -461v-204z" />
<glyph unicode="?" horiz-adv-x="1139" d="M145 1212v267q160 30 328 30q234 0 383 -73q205 -101 205 -322q0 -125 -88 -225q-43 -49 -195 -162q-84 -63 -106 -98q-29 -47 -29 -140v-100h-328v43q2 25 0 51q-2 64 -2 70q0 55 23 100q20 43 92 113q203 201 203 301q0 96 -90 141q-70 35 -176 35q-125 0 -220 -31z M295 0v307h369v-307h-369z" />
<glyph unicode="@" horiz-adv-x="1516" d="M0 737q0 328 231 551q232 221 562 221q286 0 491 -168q229 -188 229 -456q0 -271 -157 -422q-70 -68 -172 -119q-111 -55 -193 -55q-119 0 -119 92v8l-4 4q-82 -96 -196 -96q-137 0 -240 106q-104 107 -104 256q0 189 114 326q119 145 303 145q164 0 252 -120l21 100h194 l-90 -492q-12 -63 -12 -75q0 -39 27 -39q75 0 129 74q63 86 63 239q0 242 -153 379q-148 129 -390 129q-254 0 -407 -164q-154 -166 -154 -424q0 -268 166 -426q164 -157 430 -157q226 0 391 129h203q-227 -314 -610 -314q-336 0 -567 215q-238 222 -238 553zM573 692 q0 -74 41 -121q41 -49 115 -49q92 0 152 64q57 63 57 153q0 76 -43 121q-45 45 -121 45q-84 0 -141 -65q-60 -66 -60 -148z" />
<glyph unicode="A" horiz-adv-x="1706" d="M20 0l584 1479h500l584 -1479h-463l-99 289h-600l-96 -289h-410zM631 575h395l-188 615h-7z" />
<glyph unicode="B" horiz-adv-x="1479" d="M141 0v1479h709q221 0 360 -97q152 -104 152 -290q0 -129 -98 -220q-86 -79 -222 -108q156 -21 252 -113q105 -98 105 -250q0 -270 -277 -362q-116 -39 -286 -39h-695zM551 287h240q77 0 129 43q49 43 49 110q0 66 -41 117q-43 49 -109 49h-268v-319zM551 891l209 2 q182 2 182 156q0 63 -47 104q-49 39 -121 39h-223v-301z" />
<glyph unicode="C" horiz-adv-x="1593" d="M90 741q0 373 181.5 569.5t527.5 198.5h12q295 0 479 -106q217 -129 217 -381v-8h-430q-16 209 -278 209q-279 0 -279 -498q0 -469 279 -469q266 0 278 217h430v-8q0 -254 -217 -383q-188 -113 -491 -113q-344 0 -527 201q-182 199 -182 571z" />
<glyph unicode="D" horiz-adv-x="1706" d="M137 0v1479h625q842 0 842 -740q0 -739 -842 -739h-625zM547 287h192q181 0 301 112q134 123 134 340t-134 340q-120 113 -301 113h-192v-905z" />
<glyph unicode="E" d="M141 0v1479h1127v-287h-717v-305h659v-287h-659v-313h717v-287h-1127z" />
<glyph unicode="F" horiz-adv-x="1251" d="M145 0v1479h1047v-287h-637v-344h592v-287h-592v-561h-410z" />
<glyph unicode="G" horiz-adv-x="1706" d="M80 739q0 348 199 555q196 205 542 215q37 2 72 2q276 0 432 -73q234 -111 238 -402h-410q-27 187 -268 187q-193 0 -291 -152q-84 -129 -84 -332q0 -225 111 -350q114 -133 329 -133q90 0 213 25v272h-301v287h711v-791q-184 -31 -367 -61q-137 -19 -317 -19h-68 q-344 6 -542 215q-199 207 -199 555z" />
<glyph unicode="H" horiz-adv-x="1593" d="M135 0v1479h412v-586h502v586h409v-1479h-409v606h-504v-606h-410z" />
<glyph unicode="I" horiz-adv-x="682" d="M137 0v1479h410v-1479h-410z" />
<glyph unicode="J" horiz-adv-x="1251" d="M8 436v37h408v-20q0 -70 24 -121q35 -76 111 -76q154 0 154 221v1002h409v-1037q0 -241 -178 -366q-152 -107 -383 -107q-545 0 -545 467z" />
<glyph unicode="K" horiz-adv-x="1593" d="M162 0v1479h409l4 -650l469 650h486l-510 -652l551 -827h-508l-492 786v-786h-409z" />
<glyph unicode="L" horiz-adv-x="1251" d="M137 0v1479h410v-1192h670v-287h-1080z" />
<glyph unicode="M" horiz-adv-x="2048" d="M131 0v1479h649l246 -1002l234 1002h636v-1479h-358l-4 1241l-346 -1241h-369l-325 1251l-5 -4v-1247h-358z" />
<glyph unicode="N" horiz-adv-x="1706" d="M133 0v1479h574l495 -1102l4 4v1098h369v-1479h-567l-506 1133v-1133h-369z" />
<glyph unicode="O" horiz-adv-x="1706" d="M88 739q0 367 201 570q198 200 565 200t567 -200q199 -203 199 -570q0 -366 -199 -567q-200 -203 -567 -203t-565 203q-201 201 -201 567zM518 733q0 -477 336 -477t336 477q0 490 -336 490t-336 -490z" />
<glyph unicode="P" horiz-adv-x="1479" d="M150 0v1479h679q601 0 601 -475q0 -476 -601 -476h-270v-528h-409zM559 815h211q229 0 229 189q0 188 -229 188h-211v-377z" />
<glyph unicode="Q" horiz-adv-x="1706" d="M86 739q0 367 201 570q198 200 565 200t567 -200q199 -203 199 -570q0 -139 -78 -276q-82 -144 -219 -227l4 -5q105 33 250 33q67 0 100 2v-266h-512q-51 0 -153 -14q-105 -17 -158 -17q-367 0 -565 203q-201 201 -201 567zM516 733q0 -477 336 -477t336 477 q0 490 -336 490t-336 -490z" />
<glyph unicode="R" horiz-adv-x="1479" d="M133 0v1479h684q236 0 381 -74q193 -96 193 -307q0 -158 -111 -254q-100 -88 -266 -109v-8q184 -4 258 -100q59 -78 80 -269q20 -198 67 -358h-444q-27 123 -45 313q-15 152 -45 193q-43 59 -189 59h-153v-565h-410zM543 852h159q117 0 175 27q84 39 84 143t-84 143 q-58 27 -175 27h-159v-340z" />
<glyph unicode="S" horiz-adv-x="1479" d="M88 471l410 -4q0 -100 67 -154q68 -57 180 -57q80 0 144 37q72 43 72 110q0 91 -91 136q-51 26 -229 67q-190 45 -305 96q-223 99 -223 345v16q8 242 204 354q160 92 428 92q265 0 420 -98q176 -111 176 -328q0 -18 -2 -39h-409v11q0 82 -62 127q-55 41 -149 41 q-72 0 -123 -39q-53 -41 -53 -97q0 -71 80 -116q47 -27 159 -56q133 -32 269 -65q157 -49 237 -133q103 -107 103 -289q0 -221 -197 -346q-178 -113 -453 -113q-645 0 -653 502z" />
<glyph unicode="T" d="M20 1192v287h1326v-287h-463v-1192h-410v1192h-453z" />
<glyph unicode="U" horiz-adv-x="1706" d="M147 543v936h410v-916q0 -143 78 -225q76 -82 219 -82t221 82q76 82 76 225v916h410v-936q0 -291 -213 -441q-189 -133 -494 -133t-494 133q-213 150 -213 441z" />
<glyph unicode="V" horiz-adv-x="1593" d="M23 1479h452l338 -1071l352 1071h408l-539 -1479h-489z" />
<glyph unicode="W" horiz-adv-x="2048" d="M16 1479h408l139 -1078l240 1078h502l221 -1069l135 1069h371l-254 -1479h-492l-258 1096l-270 -1096h-490z" />
<glyph unicode="X" horiz-adv-x="1706" d="M27 0l561 770l-520 709h528l289 -459l299 459h471l-527 -701l553 -778h-524l-323 526l-328 -526h-479z" />
<glyph unicode="Y" horiz-adv-x="1593" d="M20 1479h476l323 -621l334 621h422l-580 -938v-541h-409v541z" />
<glyph unicode="Z" d="M53 0v287l778 905h-737v287h1116v-369l-714 -823h819v-287h-1262z" />
<glyph unicode="[" horiz-adv-x="682" d="M96 -197v1676h531v-215h-224v-1246h224v-215h-531z" />
<glyph unicode="\" horiz-adv-x="569" d="M-219 1479h301l706 -1479h-301z" />
<glyph unicode="]" horiz-adv-x="682" d="M55 18h224v1246h-224v215h531v-1676h-531v215z" />
<glyph unicode="^" horiz-adv-x="1352" d="M160 645l393 772h246l393 -772l-213 -96l-303 571l-303 -571z" />
<glyph unicode="_" horiz-adv-x="1024" d="M0 -139h1024v-115h-1024v115z" />
<glyph unicode="`" horiz-adv-x="682" d="M-133 1479h426l213 -297h-242z" />
<glyph unicode="a" horiz-adv-x="1251" d="M66 303v8q6 353 569 353h123q0 116 -10 143q-23 72 -115 72h-10q-64 -2 -99 -58q-24 -41 -24 -92v-8l-367 4q0 334 533 334q180 0 307 -74q149 -86 149 -246v-528q0 -18 23 -211h-373q-8 33 -12 139q-109 -170 -328 -170q-180 0 -274 92q-92 89 -92 242zM442 330 q0 -56 39 -94q39 -41 94 -41q113 0 154 96q29 65 29 198q-168 0 -213 -22q-103 -51 -103 -137z" />
<glyph unicode="b" d="M117 0v1479h389l4 -559q108 139 313 139q226 0 346 -156q111 -141 111 -373q0 -251 -113 -397q-125 -164 -366 -164q-92 0 -180.5 53.5t-106.5 129.5h-8l-10 -152h-379zM506 500q0 -113 35 -195q47 -110 141 -110q199 0 199 323q0 316 -185 316q-190 0 -190 -334z" />
<glyph unicode="c" horiz-adv-x="1251" d="M86 514q0 266 166 412q151 131 399 133h8q211 0 345 -86q159 -101 172 -305h-390q0 166 -151 166q-150 0 -150 -320q0 -319 150 -319q151 6 151 206h390q0 -208 -164 -325q-144 -105 -361 -107h-8q-557 0 -557 545z" />
<glyph unicode="d" d="M84 510q0 225 106 377q121 172 336 172q226 0 338 -152v572h389v-1479h-379l-10 152h-8q-39 -91 -137 -138q-88 -45 -205 -45q-205 0 -326 174q-104 154 -104 367zM483 514q0 -319 191 -319q190 0 190 319q0 320 -190 320q-191 0 -191 -320z" />
<glyph unicode="e" horiz-adv-x="1251" d="M70 549q0 237 159 377q154 133 394 133q299 0 432 -168q119 -150 119 -455h-738v-12q0 -236 178 -236q168 0 191 148h360q-16 -178 -194 -287q-131 -80 -326 -80q-307 0 -440 137q-135 138 -135 443zM444 645h361q0 88 -45 152q-49 67 -129 67h-8q-160 -8 -179 -219z" />
<glyph unicode="f" horiz-adv-x="909" d="M41 782v246h197q-2 27 -2 51q0 224 81 320q91 104 349 104q90 0 208 -24v-244q-75 22 -108 22q-143 0 -143 -206v-23h239v-246h-239v-782h-390v782h-192z" />
<glyph unicode="g" d="M82 547q0 229 127 371q125 141 344 141q225 0 317 -180l11 149h379v-885q0 -143 -27 -225q-31 -98 -117 -180q-72 -70 -215 -109q-119 -35 -231 -35q-529 0 -529 353h363q4 -127 164 -127q118 0 166 74q36 59 36 188l-4 117q-90 -164 -334 -164q-213 0 -335 153 q-115 142 -115 359zM481 547q0 -287 195 -287q194 0 194 287t-194 287q-195 0 -195 -287z" />
<glyph unicode="h" d="M135 0v1479h389v-564q123 144 322 144q168 0 276 -101q109 -102 109 -270v-688h-389v604q0 209 -150 209q-168 0 -168 -223v-590h-389z" />
<glyph unicode="i" horiz-adv-x="682" d="M145 1204v275h394v-275h-394zM147 0v1028h390v-1028h-390z" />
<glyph unicode="j" horiz-adv-x="682" d="M10 -143q21 -4 39 -4q98 0 98 110v1065h390v-825l2 -234v33q-2 -117 -21 -201q-20 -90 -106 -145q-78 -49 -174 -49q-134 0 -228 10v240zM145 1200v275h394v-275h-394z" />
<glyph unicode="k" d="M139 0v1479h389v-1479h-389zM528 573l355 455h424l-349 -432l400 -596h-461z" />
<glyph unicode="l" horiz-adv-x="682" d="M147 0v1479h390v-1479h-390z" />
<glyph unicode="m" horiz-adv-x="2048" d="M111 1028h385l10 -170q98 195 360 195q101 0 191 -49q88 -52 119 -142q51 90 149 144q98 51 215 53h8q162 0 269 -101q108 -102 108 -270v-688h-389v604q0 209 -150 209q-167 0 -167 -223v-590h-390v604q0 209 -149 209q-168 0 -168 -223v-590h-389v764q0 131 -12 264z " />
<glyph unicode="n" d="M123 1028h395l6 -113q123 144 322 144q168 0 276 -101q109 -102 109 -270v-688h-389v604q0 209 -150 209q-168 0 -168 -223v-590h-389v764q0 131 -12 264z" />
<glyph unicode="o" d="M86 514q0 270 178 414q160 131 420 131t420 -131q178 -144 178 -414t-178 -414q-160 -131 -420 -131t-420 131q-178 144 -178 414zM485 514q0 -319 199 -319t199 319q0 320 -199 320t-199 -320z" />
<glyph unicode="p" d="M115 -393v1421h389l4 -145q113 176 334 176q215 0 334 -164q104 -145 104 -367q0 -241 -117 -393q-129 -166 -364 -166q-168 0 -295 154v-516h-389zM504 514q0 -319 188 -319q189 0 189 319q0 320 -189 320q-188 0 -188 -320z" />
<glyph unicode="q" d="M86 514q0 223 113 375q123 170 338 170q217 0 325 -180l10 149h379v-1421h-389l-4 524q-123 -162 -334 -162q-215 0 -334 170q-104 150 -104 375zM485 514q0 -319 189 -319q188 0 188 319q0 320 -188 320q-189 0 -189 -320z" />
<glyph unicode="r" horiz-adv-x="909" d="M123 1028h395l10 -192q60 223 328 223h16v-330q-34 2 -81 2q-267 -2 -267 -319v-412h-389v764q0 131 -12 264z" />
<glyph unicode="s" horiz-adv-x="1139" d="M76 334h368q-2 -10 -2 -21q0 -39 31 -73q39 -45 90 -45q131 0 131 94q0 69 -157 114q-246 66 -293 91q-158 81 -158 241q0 172 162 258q125 66 313 66q465 0 486 -348h-369q0 123 -131 123q-92 0 -92 -93q0 -45 108 -73q148 -37 293 -74q207 -66 207 -283 q0 -342 -492 -342q-227 0 -342 66q-153 84 -153 299z" />
<glyph unicode="t" horiz-adv-x="909" d="M27 782v246h200v156l389 147v-303h226v-246h-226v-407q0 -74 5 -90q12 -70 69 -70q105 0 150 6v-231q-111 -21 -209 -21q-221 0 -301 58q-103 73 -103 295v460h-200z" />
<glyph unicode="u" d="M135 340v688h389v-604q0 -209 150 -209q168 0 168 223v590h389v-764q0 -131 12 -264h-395l-6 113q-123 -144 -322 -144q-168 0 -276 103q-109 100 -109 268z" />
<glyph unicode="v" horiz-adv-x="1251" d="M27 1028h413l207 -721l217 721h363l-389 -1028h-420z" />
<glyph unicode="w" horiz-adv-x="1933" d="M27 1028h393l170 -729l180 729h430l182 -725l181 725h344l-324 -1028h-430l-190 717l-201 -717h-422z" />
<glyph unicode="x" horiz-adv-x="1251" d="M35 0l346 537l-305 491h448l131 -315l138 315h393l-316 -491l349 -537h-455l-162 381l-170 -381h-397z" />
<glyph unicode="y" horiz-adv-x="1251" d="M16 1028h416l207 -715l221 715h359l-560 -1421h-358l145 362z" />
<glyph unicode="z" horiz-adv-x="1139" d="M92 0v246l533 536h-512v246h909v-246l-541 -536h566v-246h-955z" />
<glyph unicode="{" horiz-adv-x="682" d="M2 555v184q199 0 199 105v389q0 115 104 186q84 60 168 60h205v-185h-51q-78 0 -101 -28q-10 -11 -18 -64v-379q0 -84 -72 -129q-59 -39 -149 -47q221 -18 221 -188v-379q0 -92 119 -92h51v-185h-205q-84 0 -168 60q-104 71 -104 186v387q0 119 -199 119z" />
<glyph unicode="|" horiz-adv-x="569" d="M162 0v1479h246v-1479h-246z" />
<glyph unicode="}" horiz-adv-x="682" d="M4 -12h51q80 0 105 28q14 17 14 64v379q0 84 72 129q59 39 149 47q-221 18 -221 188v379q0 92 -119 92h-51v185h205q84 0 168 -60q104 -71 104 -186v-387q0 -119 199 -119v-184q-199 0 -199 -105v-389q0 -115 -104 -186q-84 -60 -168 -60h-205v185z" />
<glyph unicode="~" horiz-adv-x="1352" d="M160 455q137 254 305 254q82 0 235 -68q154 -68 195 -68q55 0 100 54l66 98l131 -150q-76 -120 -117 -161q-78 -78 -178 -78q-98 0 -233 67q-136 68 -195 68q-61 0 -111 -57q-12 -17 -67 -111z" />
<glyph horiz-adv-x="1536" d="M-14 395l116 236h99v102h-215l116 236h152q61 198 240 321q186 129 448 129q324 0 531 -207l-117 -247q-146 219 -424 219q-295 0 -387 -215h813l-2 -4l-111 -232h-745q-2 -33 -2 -55q0 -19 2 -47h696l-111 -236h-520q41 -84 133 -137q107 -61 244 -61q256 0 426 192 v-295q-63 -51 -174 -88q-133 -47 -283 -47q-254 0 -430 129q-155 113 -225 307h-270z" />
<glyph unicode="&#xa1;" horiz-adv-x="909" d="M233 -375l74 1039h295l76 -1039h-445zM266 797v307h369v-307h-369z" />
<glyph unicode="&#xa2;" d="M129 535q0 483 545 524l78 260h284l-82 -299q117 -47 193 -139q82 -101 82 -217h-400v12q0 117 -137 117q-164 0 -164 -279q0 -278 164 -278q82 0 117 51q20 32 29 110h399q-8 -202 -174 -325q-137 -103 -336 -103h-25l-90 -288h-284l92 346q-291 135 -291 508z" />
<glyph unicode="&#xa3;" d="M25 596v266h196v37q0 549 559 549q541 0 541 -444v-13h-399v23q0 78 -25 114q-35 54 -127 54q-121 0 -149 -117q-11 -39 -11 -203h291v-266h-291v-330h641v-266h-1181v266h151v330h-196z" />
<glyph unicode="&#xa4;" horiz-adv-x="1352" d="M156 281l90 90q-76 135 -76 262q0 143 76 268l-90 88l161 164l91 -90q129 78 264 78q149 0 274 -78l90 90l158 -164l-90 -88q78 -125 78 -266q0 -154 -78 -264l90 -90l-158 -162l-90 90q-133 -80 -264 -80q-152 0 -274 80l-91 -90zM436 635q0 -103 68 -170 q65 -70 172 -70q106 0 174 70q65 67 65 170q0 102 -65 172q-68 67 -174 67q-107 0 -172 -67q-68 -70 -68 -172z" />
<glyph unicode="&#xa5;" d="M18 1417h412l246 -559l260 559h412l-285 -528h192v-266h-305l-61 -111h366v-266h-385v-246h-389v246h-370v266h366l-61 111h-305v266h182z" />
<glyph unicode="&#xa6;" horiz-adv-x="569" d="M162 0v614h246v-614h-246zM162 864v615h246v-615h-246z" />
<glyph unicode="&#xa7;" d="M188 713q0 174 224 293q-176 79 -176 237q0 266 460 266q68 0 168 -12q152 -18 166 -20v-230q-133 37 -262 37q-133 0 -133 -63q0 -56 141 -103q205 -67 262 -104q142 -86 142 -240q0 -84 -58 -162q-53 -69 -135 -110q88 -51 123 -101q41 -59 41 -151q0 -154 -180 -227 q-131 -54 -307 -54q-193 0 -412 43v228q123 -45 299 -45q201 0 201 88q0 61 -146 108q-225 76 -272 101q-146 79 -146 221zM537 766q0 -70 84 -121q28 -18 143 -67q67 102 67 163q0 68 -69 117q-10 8 -125 68q-100 -78 -100 -160z" />
<glyph unicode="&#xa8;" horiz-adv-x="682" d="M-100 1182v297h348v-297h-348zM436 1182v297h348v-297h-348z" />
<glyph unicode="&#xa9;" horiz-adv-x="1638" d="M49 739q0 320 224.5 545t545.5 225q320 0 545 -225t225 -545q0 -319 -225 -544.5t-545 -225.5q-321 0 -545.5 225.5t-224.5 544.5zM254 739q0 -256 156 -409q155 -156 409 -156q250 0 408 156q157 153 157 409t-157 412q-158 154 -408 154q-254 0 -409 -154 q-156 -156 -156 -412zM426 745q0 197 115 322q114 123 307 123q141 0 242 -78q98 -78 120 -213h-174q-24 139 -190 139q-109 0 -166 -82q-59 -84 -59 -206q0 -117 59 -203q65 -92 172 -92q72 0 127 41q53 39 57 106h174q-14 -137 -120 -219q-99 -80 -238 -80 q-190 0 -309 129q-117 123 -117 313z" />
<glyph unicode="&#xaa;" horiz-adv-x="752" d="M4 631v164h744v-164h-744zM16 1061q2 104 121 172q107 61 240 61h80q0 72 -60 72q-39 0 -61 -16q-23 -15 -23 -31h-239q0 158 243 184q48 6 103 6q119 0 203 -43q98 -53 98 -147v-318q0 -24 14 -127h-272l-12 52q-50 -70 -166 -70q-119 0 -191 49q-78 53 -78 156z M283 1073q0 -74 79 -74q64 0 84 52q9 24 9 100q-66 0 -111 -12q-61 -11 -61 -66z" />
<glyph unicode="&#xab;" d="M125 547l258 399h311l-241 -399l237 -400h-313zM672 547l258 399h311l-242 -399l238 -400h-313z" />
<glyph unicode="&#xac;" horiz-adv-x="1352" d="M160 592v246h1032v-602h-246v356h-786z" />
<glyph unicode="&#xad;" horiz-adv-x="1352" d="M160 391v246h1032v-246h-1032z" />
<glyph unicode="&#xae;" horiz-adv-x="1638" d="M49 739q0 320 224.5 545t545.5 225q320 0 545 -225t225 -545q0 -319 -225 -544.5t-545 -225.5q-321 0 -545.5 225.5t-224.5 544.5zM254 739q0 -256 156 -409q155 -156 409 -156q250 0 408 156q157 153 157 409t-157 412q-158 154 -408 154q-254 0 -409 -154 q-156 -156 -156 -412zM502 322v829h403q170 0 242 -53q80 -58 80 -201q0 -209 -228 -225l203 -350h-211l-184 350h-121v-350h-184zM686 815h221q125 0 125 105q0 61 -61 79q-27 9 -105 9h-180v-193z" />
<glyph unicode="&#xaf;" horiz-adv-x="682" d="M-49 1315v164h780v-164h-780z" />
<glyph unicode="&#xb0;" horiz-adv-x="819" d="M102 1141q0 127 90.5 217t217.5 90t217 -90t90 -217t-90 -217t-217 -90t-217.5 90t-90.5 217zM266 1135q4 -138 142 -138q63 0 104 37t41 101q0 61 -43 106q-43 43 -104 43q-62 0 -101 -43t-39 -106z" />
<glyph unicode="&#xb1;" horiz-adv-x="1352" d="M160 0v246h1032v-246h-1032zM160 559v246h393v223h246v-223h393v-246h-393v-235h-246v235h-393z" />
<glyph unicode="&#xb2;" horiz-adv-x="819" d="M47 580v159q137 109 272 217q197 158 203 248v8q0 66 -98 66q-41 0 -70 -27q-28 -26 -28 -57h-260q10 254 383 254q145 0 237 -51q113 -60 113 -180q0 -121 -213 -302q-111 -81 -224 -165h439v-170h-754z" />
<glyph unicode="&#xb3;" horiz-adv-x="819" d="M33 825h268q0 -94 123 -94q127 0 127 94q0 84 -88 103q-27 6 -160 6v170q123 0 154 8q75 21 75 105q0 61 -104 61q-41 0 -72 -23q-30 -22 -30 -51h-271q2 123 125 189q101 55 252 55q148 0 246 -41q131 -57 131 -176q0 -78 -61 -133q-64 -58 -152 -74q231 -25 231 -217 q0 -127 -135 -193q-106 -53 -258 -53q-371 0 -401 264z" />
<glyph unicode="&#xb4;" horiz-adv-x="682" d="M176 1182l213 297l426 -4l-397 -293h-242z" />
<glyph unicode="&#xb5;" d="M135 -393v1421h389v-604q0 -209 150 -209q168 0 168 223v590h389v-764q0 -131 12 -264h-395l-6 113q-123 -144 -318 -144v-362h-389z" />
<glyph unicode="&#xb6;" horiz-adv-x="1741" d="M111 1114q0 205 143 293q119 72 358 72h836v-349h-90v-1490h-348v1490h-158v-1490h-348v1124q-178 0 -285.5 94t-107.5 256z" />
<glyph unicode="&#xb7;" horiz-adv-x="682" d="M158 360v308h368v-308h-368z" />
<glyph unicode="&#xb8;" horiz-adv-x="682" d="M-37 -403l33 112q131 -45 213 -45q143 0 143 62q0 30 -37 53q-39 20 -75 20q-56 0 -105 -18l-55 41l141 196h154l-92 -120q63 4 69 4q223 0 223 -168q0 -88 -110 -137q-84 -37 -275 -37q-79 0 -227 37z" />
<glyph unicode="&#xb9;" horiz-adv-x="819" d="M143 1081v199q152 45 267 137h225v-837h-266v608q-121 -74 -226 -107z" />
<glyph unicode="&#xba;" horiz-adv-x="819" d="M23 631v164h776v-164h-776zM23 1184q0 162 114 248q105 77 275 77q168 0 272 -77q115 -86 115 -248t-115 -250q-104 -78 -272 -78q-170 0 -275 78q-114 88 -114 250zM289 1184q0 -185 123 -185q120 0 120 185q0 182 -120 182q-123 0 -123 -182z" />
<glyph unicode="&#xbb;" d="M125 147l242 400l-238 399h313l252 -399l-258 -400h-311zM672 147l241 400l-237 399h313l252 -399l-258 -400h-311z" />
<glyph unicode="&#xbc;" horiz-adv-x="2048" d="M195 1081v199q151 45 266 137h225v-837h-266v608q-121 -74 -225 -107zM483 0l748 1448h223l-747 -1448h-224zM1018 164v170l391 516h315v-516h129v-170h-129v-164h-266v164h-440zM1247 334h211v295h-6z" />
<glyph unicode="&#xbd;" horiz-adv-x="2048" d="M184 1081v199q152 45 267 137h225v-837h-266v608q-121 -74 -226 -107zM453 0l747 1448h223l-747 -1448h-223zM1110 0v160q137 108 272 217q197 158 203 248v8q0 65 -98 65q-41 0 -70 -26q-28 -27 -28 -58h-261q11 254 383 254q146 0 238 -51q113 -59 113 -180t-213 -301 q-111 -82 -224 -166h439v-170h-754z" />
<glyph unicode="&#xbe;" horiz-adv-x="2048" d="M57 825h269q0 -94 123 -94q126 0 126 94q0 84 -88 103q-26 6 -159 6v170q123 0 153 8q76 21 76 105q0 61 -104 61q-41 0 -72 -23q-31 -22 -31 -51h-270q2 123 125 189q100 55 252 55q147 0 245 -41q132 -57 132 -176q0 -78 -62 -133q-63 -58 -151 -74q231 -25 231 -217 q0 -127 -135 -193q-107 -53 -258 -53q-371 0 -402 264zM608 0l748 1448h223l-748 -1448h-223zM1155 164v170l391 516h316v-516h129v-170h-129v-164h-267v164h-440zM1364 334h231v315h-6z" />
<glyph unicode="&#xbf;" horiz-adv-x="1139" d="M78 -10q0 125 88 225q43 49 194 162q84 63 107 98q29 47 29 139v101h327v-43q-2 -25 0 -51q2 -64 2 -70q0 -55 -20 -96q-23 -47 -94 -117q-203 -201 -203 -301q0 -96 90 -141q70 -35 176 -35q125 0 219 30v-266q-159 -31 -327 -31q-234 0 -383 74q-205 101 -205 322z M475 797v307h369v-307h-369z" />
<glyph unicode="&#xc0;" horiz-adv-x="1706" d="M20 0l584 1479h500l584 -1479h-463l-99 289h-600l-96 -289h-410zM379 1930h426l213 -297h-242zM631 575h395l-188 615h-7z" />
<glyph unicode="&#xc1;" horiz-adv-x="1706" d="M20 0l584 1479h500l584 -1479h-463l-99 289h-600l-96 -289h-410zM631 575h395l-188 615h-7zM651 1633l213 297l426 -4l-397 -293h-242z" />
<glyph unicode="&#xc2;" horiz-adv-x="1706" d="M20 0l584 1479h500l584 -1479h-463l-99 289h-600l-96 -289h-410zM438 1633l242 297h346l244 -297h-266l-152 157l-152 -157h-262zM631 575h395l-188 615h-7z" />
<glyph unicode="&#xc3;" horiz-adv-x="1706" d="M20 0l584 1479h500l584 -1479h-463l-99 289h-600l-96 -289h-410zM430 1631q6 116 90 209q82 90 198 90q70 0 203 -43t178 -43t66 80h166q-10 -107 -88 -197q-84 -96 -189 -96q-69 0 -196 41t-181 41q-63 0 -90 -82h-157zM631 575h395l-188 615h-7z" />
<glyph unicode="&#xc4;" horiz-adv-x="1706" d="M20 0l584 1479h500l584 -1479h-463l-99 289h-600l-96 -289h-410zM412 1633v297h348v-297h-348zM631 575h395l-188 615h-7zM948 1633v297h348v-297h-348z" />
<glyph unicode="&#xc5;" horiz-adv-x="1706" d="M20 0l584 1479h500l584 -1479h-463l-99 289h-600l-96 -289h-410zM631 575h395l-188 615h-7zM633 1780q0 90 66.5 155.5t154.5 65.5q90 0 155.5 -65.5t65.5 -155.5t-65 -153q-66 -66 -156 -66t-156 66q-65 63 -65 153zM756 1780q0 -37 30 -65q31 -31 68 -31q43 0 72 29 q26 28 26 67q0 82 -98 98q-37 0 -68 -30q-30 -31 -30 -68z" />
<glyph unicode="&#xc6;" horiz-adv-x="2048" d="M14 0l650 1479h1286v-287h-652l33 -305h559v-287h-528l31 -313h557v-287h-922l-33 293h-463l-112 -293h-406zM637 580h332l-68 643h-10z" />
<glyph unicode="&#xc7;" horiz-adv-x="1593" d="M90 741q0 373 181.5 569.5t527.5 198.5h12q295 0 479 -106q217 -129 217 -381v-8h-430q-16 209 -278 209q-279 0 -279 -498q0 -469 279 -469q266 0 278 217h430v-8q0 -254 -217 -383q-188 -113 -491 -113q-344 0 -527 201q-182 199 -182 571zM420 -403l33 112 q131 -45 213 -45q143 0 143 62q0 30 -37 53q-39 20 -75 20q-56 0 -105 -18l-55 41l141 196h154l-92 -120q63 4 69 4q223 0 223 -168q0 -88 -110 -137q-84 -37 -275 -37q-79 0 -227 37z" />
<glyph unicode="&#xc8;" d="M141 0v1479h1127v-287h-717v-305h659v-287h-659v-313h717v-287h-1127zM209 1930h426l213 -297h-242z" />
<glyph unicode="&#xc9;" d="M141 0v1479h1127v-287h-717v-305h659v-287h-659v-313h717v-287h-1127zM518 1633l213 297l426 -4l-397 -293h-242z" />
<glyph unicode="&#xca;" d="M141 0v1479h1127v-287h-717v-305h659v-287h-659v-313h717v-287h-1127zM268 1633l242 297h346l244 -297h-266l-152 157l-152 -157h-262z" />
<glyph unicode="&#xcb;" d="M141 0v1479h1127v-287h-717v-305h659v-287h-659v-313h717v-287h-1127zM242 1633v297h348v-297h-348zM778 1633v297h348v-297h-348z" />
<glyph unicode="&#xcc;" horiz-adv-x="682" d="M-133 1930h426l213 -297h-242zM137 0v1479h410v-1479h-410z" />
<glyph unicode="&#xcd;" horiz-adv-x="682" d="M137 0v1479h410v-1479h-410zM151 1633l213 297l426 -4l-397 -293h-242z" />
<glyph unicode="&#xce;" horiz-adv-x="682" d="M-74 1633l242 297h346l244 -297h-266l-152 157l-152 -157h-262zM137 0v1479h410v-1479h-410z" />
<glyph unicode="&#xcf;" horiz-adv-x="682" d="M-100 1633v297h348v-297h-348zM137 0v1479h410v-1479h-410zM436 1633v297h348v-297h-348z" />
<glyph unicode="&#xd0;" horiz-adv-x="1706" d="M-12 664v163h149v652h625q842 0 842 -740q0 -739 -842 -739h-625v664h-149zM547 287h192q181 0 301 112q134 123 134 340t-134 340q-120 113 -301 113h-192v-365h149v-163h-149v-377z" />
<glyph unicode="&#xd1;" horiz-adv-x="1706" d="M133 0v1479h574l495 -1102l4 4v1098h369v-1479h-567l-506 1133v-1133h-369zM455 1631q6 116 90 209q82 90 198 90q70 0 203 -43t178 -43t66 80h166q-10 -107 -88 -197q-84 -96 -189 -96q-69 0 -196 41t-181 41q-63 0 -90 -82h-157z" />
<glyph unicode="&#xd2;" horiz-adv-x="1706" d="M88 739q0 367 201 570q198 200 565 200t567 -200q199 -203 199 -570q0 -366 -199 -567q-200 -203 -567 -203t-565 203q-201 201 -201 567zM379 1930h426l213 -297h-242zM518 733q0 -477 336 -477t336 477q0 490 -336 490t-336 -490z" />
<glyph unicode="&#xd3;" horiz-adv-x="1706" d="M88 739q0 367 201 570q198 200 565 200t567 -200q199 -203 199 -570q0 -366 -199 -567q-200 -203 -567 -203t-565 203q-201 201 -201 567zM518 733q0 -477 336 -477t336 477q0 490 -336 490t-336 -490zM688 1633l213 297l426 -4l-397 -293h-242z" />
<glyph unicode="&#xd4;" horiz-adv-x="1706" d="M88 739q0 367 201 570q198 200 565 200t567 -200q199 -203 199 -570q0 -366 -199 -567q-200 -203 -567 -203t-565 203q-201 201 -201 567zM438 1633l242 297h346l244 -297h-266l-152 157l-152 -157h-262zM518 733q0 -477 336 -477t336 477q0 490 -336 490t-336 -490z" />
<glyph unicode="&#xd5;" horiz-adv-x="1706" d="M88 739q0 367 201 570q198 200 565 200t567 -200q199 -203 199 -570q0 -366 -199 -567q-200 -203 -567 -203t-565 203q-201 201 -201 567zM430 1631q6 116 90 209q82 90 198 90q70 0 203 -43t178 -43t66 80h166q-10 -107 -88 -197q-84 -96 -189 -96q-69 0 -196 41 t-181 41q-63 0 -90 -82h-157zM518 733q0 -477 336 -477t336 477q0 490 -336 490t-336 -490z" />
<glyph unicode="&#xd6;" horiz-adv-x="1706" d="M88 739q0 367 201 570q198 200 565 200t567 -200q199 -203 199 -570q0 -366 -199 -567q-200 -203 -567 -203t-565 203q-201 201 -201 567zM412 1633v297h348v-297h-348zM518 733q0 -477 336 -477t336 477q0 490 -336 490t-336 -490zM948 1633v297h348v-297h-348z" />
<glyph unicode="&#xd7;" horiz-adv-x="1352" d="M160 164l350 348l-350 348l170 168l346 -348l344 348l172 -168l-350 -346l350 -348l-172 -166l-344 346l-346 -346z" />
<glyph unicode="&#xd8;" horiz-adv-x="1706" d="M55 27l191 192q-158 195 -158 520q0 367 201 570q198 200 565 200q324 0 514 -155l197 200l133 -145l-199 -201q121 -188 121 -469q0 -366 -199 -567q-200 -203 -567 -203q-281 0 -463 119l-201 -203zM518 733q0 -123 25 -215l565 574q-80 131 -254 131q-336 0 -336 -490 zM637 338q78 -82 217 -82q336 0 336 477q0 92 -12 152z" />
<glyph unicode="&#xd9;" horiz-adv-x="1706" d="M147 543v936h410v-916q0 -143 78 -225q76 -82 219 -82t221 82q76 82 76 225v916h410v-936q0 -291 -213 -441q-189 -133 -494 -133t-494 133q-213 150 -213 441zM379 1930h426l213 -297h-242z" />
<glyph unicode="&#xda;" horiz-adv-x="1706" d="M147 543v936h410v-916q0 -143 78 -225q76 -82 219 -82t221 82q76 82 76 225v916h410v-936q0 -291 -213 -441q-189 -133 -494 -133t-494 133q-213 150 -213 441zM688 1633l213 297l426 -4l-397 -293h-242z" />
<glyph unicode="&#xdb;" horiz-adv-x="1706" d="M147 543v936h410v-916q0 -143 78 -225q76 -82 219 -82t221 82q76 82 76 225v916h410v-936q0 -291 -213 -441q-189 -133 -494 -133t-494 133q-213 150 -213 441zM438 1633l242 297h346l244 -297h-266l-152 157l-152 -157h-262z" />
<glyph unicode="&#xdc;" horiz-adv-x="1706" d="M147 543v936h410v-916q0 -143 78 -225q76 -82 219 -82t221 82q76 82 76 225v916h410v-936q0 -291 -213 -441q-189 -133 -494 -133t-494 133q-213 150 -213 441zM412 1633v297h348v-297h-348zM948 1633v297h348v-297h-348z" />
<glyph unicode="&#xdd;" horiz-adv-x="1593" d="M20 1479h476l323 -621l334 621h422l-580 -938v-541h-409v541zM633 1633l213 297l426 -4l-397 -293h-242z" />
<glyph unicode="&#xde;" horiz-adv-x="1479" d="M150 0v1479h409v-164h270q601 0 601 -475t-601 -475h-270v-365h-409zM559 651h211q229 0 229 189q0 188 -229 188h-211v-377z" />
<glyph unicode="&#xdf;" horiz-adv-x="1593" d="M133 0v936q0 164 10 217q19 102 95 195q131 161 514 161q217 0 354 -61q188 -84 188 -274q0 -87 -55 -146q-20 -22 -104 -82q-58 -41 -64 -78q-2 -16 -2 -30q0 -56 43 -93q23 -18 133 -75q146 -76 193 -127q69 -78 69 -213q0 -174 -147 -275q-129 -86 -309 -86 q-461 0 -463 334h340q0 -51 26 -80q25 -28 78 -28q107 0 107 135q0 96 -127 170q-101 51 -203 102q-137 88 -137 209q0 72 65 131q62 47 123 92q66 56 66 115q0 65 -54.5 100t-134.5 35q-114 0 -170 -80q-45 -65 -45 -168v-1036h-389z" />
<glyph unicode="&#xe0;" horiz-adv-x="1251" d="M66 303v8q6 353 569 353h123q0 116 -10 143q-23 72 -115 72h-10q-64 -2 -99 -58q-24 -41 -24 -92v-8l-367 4q0 334 533 334q180 0 307 -74q149 -86 149 -246v-528q0 -18 23 -211h-373q-8 33 -12 139q-109 -170 -328 -170q-180 0 -274 92q-92 89 -92 242zM189 1479h426 l213 -297h-242zM442 330q0 -56 39 -94q39 -41 94 -41q113 0 154 96q29 65 29 198q-168 0 -213 -22q-103 -51 -103 -137z" />
<glyph unicode="&#xe1;" horiz-adv-x="1251" d="M66 303v8q6 353 569 353h123q0 116 -10 143q-23 72 -115 72h-10q-64 -2 -99 -58q-24 -41 -24 -92v-8l-367 4q0 334 533 334q180 0 307 -74q149 -86 149 -246v-528q0 -18 23 -211h-373q-8 33 -12 139q-109 -170 -328 -170q-180 0 -274 92q-92 89 -92 242zM412 1182 l213 297l426 -4l-397 -293h-242zM442 330q0 -56 39 -94q39 -41 94 -41q113 0 154 96q29 65 29 198q-168 0 -213 -22q-103 -51 -103 -137z" />
<glyph unicode="&#xe2;" horiz-adv-x="1251" d="M66 303v8q6 353 569 353h123q0 116 -10 143q-23 72 -115 72h-10q-64 -2 -99 -58q-24 -41 -24 -92v-8l-367 4q0 334 533 334q180 0 307 -74q149 -86 149 -246v-528q0 -18 23 -211h-373q-8 33 -12 139q-109 -170 -328 -170q-180 0 -274 92q-92 89 -92 242zM211 1182 l242 297h346l244 -297h-266l-152 157l-152 -157h-262zM442 330q0 -56 39 -94q39 -41 94 -41q113 0 154 96q29 65 29 198q-168 0 -213 -22q-103 -51 -103 -137z" />
<glyph unicode="&#xe3;" horiz-adv-x="1251" d="M66 303v8q6 353 569 353h123q0 116 -10 143q-23 72 -115 72h-10q-64 -2 -99 -58q-24 -41 -24 -92v-8l-367 4q0 334 533 334q180 0 307 -74q149 -86 149 -246v-528q0 -18 23 -211h-373q-8 33 -12 139q-109 -170 -328 -170q-180 0 -274 92q-92 89 -92 242zM228 1180 q6 116 90 209q82 90 198 90q70 0 203 -43t178 -43t66 80h166q-10 -107 -88 -197q-84 -96 -189 -96q-69 0 -196 41t-181 41q-63 0 -90 -82h-157zM442 330q0 -56 39 -94q39 -41 94 -41q113 0 154 96q29 65 29 198q-168 0 -213 -22q-103 -51 -103 -137z" />
<glyph unicode="&#xe4;" horiz-adv-x="1251" d="M66 303v8q6 353 569 353h123q0 116 -10 143q-23 72 -115 72h-10q-64 -2 -99 -58q-24 -41 -24 -92v-8l-367 4q0 334 533 334q180 0 307 -74q149 -86 149 -246v-528q0 -18 23 -211h-373q-8 33 -12 139q-109 -170 -328 -170q-180 0 -274 92q-92 89 -92 242zM185 1182v297 h348v-297h-348zM442 330q0 -56 39 -94q39 -41 94 -41q113 0 154 96q29 65 29 198q-168 0 -213 -22q-103 -51 -103 -137zM721 1182v297h348v-297h-348z" />
<glyph unicode="&#xe5;" horiz-adv-x="1251" d="M66 303v8q6 353 569 353h123q0 116 -10 143q-23 72 -115 72h-10q-64 -2 -99 -58q-24 -41 -24 -92v-8l-367 4q0 334 533 334q180 0 307 -74q149 -86 149 -246v-528q0 -18 23 -211h-373q-8 33 -12 139q-109 -170 -328 -170q-180 0 -274 92q-92 89 -92 242zM406 1329 q0 90 66.5 155.5t154.5 65.5q90 0 155.5 -65.5t65.5 -155.5t-65 -153q-66 -66 -156 -66t-156 66q-65 63 -65 153zM442 330q0 -56 39 -94q39 -41 94 -41q113 0 154 96q29 65 29 198q-168 0 -213 -22q-103 -51 -103 -137zM529 1329q0 -37 30 -65q31 -31 68 -31q43 0 72 29 q26 28 26 67q0 82 -98 98q-37 0 -68 -30q-30 -31 -30 -68z" />
<glyph unicode="&#xe6;" horiz-adv-x="1933" d="M43 309q2 172 190 271q158 84 369 84h156q0 12 2 38v39q0 140 -119 140h-10q-64 -2 -103 -56q-28 -41 -28 -84l-367 4q0 230 309 293q99 21 224 21q204 0 323 -141q117 141 309 141q299 0 433 -168q118 -150 118 -455h-737v-10q0 -231 182 -231q166 0 187 141h368 q-10 -176 -186 -283q-137 -84 -342 -84q-291 0 -399 221q-113 -221 -465 -221q-185 0 -295 82q-119 88 -119 258zM442 330q0 -56 39 -94q39 -41 94 -41q113 0 154 96q29 65 29 198q-168 0 -213 -22q-103 -51 -103 -137zM1120 645h361q0 88 -45 152q-50 67 -129 67h-9 q-159 -8 -178 -219z" />
<glyph unicode="&#xe7;" horiz-adv-x="1251" d="M86 514q0 266 166 412q151 131 399 133h8q211 0 345 -86q159 -101 172 -305h-390q0 166 -151 166q-150 0 -150 -320q0 -319 150 -319q151 6 151 206h390q0 -208 -164 -325q-144 -105 -361 -107h-8q-557 0 -557 545zM268 -403l33 112q131 -45 213 -45q143 0 143 62 q0 30 -37 53q-39 20 -75 20q-56 0 -105 -18l-55 41l141 196h154l-92 -120q63 4 69 4q223 0 223 -168q0 -88 -110 -137q-84 -37 -275 -37q-79 0 -227 37z" />
<glyph unicode="&#xe8;" horiz-adv-x="1251" d="M70 549q0 237 159 377q154 133 394 133q299 0 432 -168q119 -150 119 -455h-738v-12q0 -236 178 -236q168 0 191 148h360q-16 -178 -194 -287q-131 -80 -326 -80q-307 0 -440 137q-135 138 -135 443zM189 1479h426l213 -297h-242zM444 645h361q0 88 -45 152 q-49 67 -129 67h-8q-160 -8 -179 -219z" />
<glyph unicode="&#xe9;" horiz-adv-x="1251" d="M70 549q0 237 159 377q154 133 394 133q299 0 432 -168q119 -150 119 -455h-738v-12q0 -236 178 -236q168 0 191 148h360q-16 -178 -194 -287q-131 -80 -326 -80q-307 0 -440 137q-135 138 -135 443zM412 1182l213 297l426 -4l-397 -293h-242zM444 645h361q0 88 -45 152 q-49 67 -129 67h-8q-160 -8 -179 -219z" />
<glyph unicode="&#xea;" horiz-adv-x="1251" d="M70 549q0 237 159 377q154 133 394 133q299 0 432 -168q119 -150 119 -455h-738v-12q0 -236 178 -236q168 0 191 148h360q-16 -178 -194 -287q-131 -80 -326 -80q-307 0 -440 137q-135 138 -135 443zM211 1182l242 297h346l244 -297h-266l-152 157l-152 -157h-262z M444 645h361q0 88 -45 152q-49 67 -129 67h-8q-160 -8 -179 -219z" />
<glyph unicode="&#xeb;" horiz-adv-x="1251" d="M70 549q0 237 159 377q154 133 394 133q299 0 432 -168q119 -150 119 -455h-738v-12q0 -236 178 -236q168 0 191 148h360q-16 -178 -194 -287q-131 -80 -326 -80q-307 0 -440 137q-135 138 -135 443zM185 1182v297h348v-297h-348zM444 645h361q0 88 -45 152 q-49 67 -129 67h-8q-160 -8 -179 -219zM721 1182v297h348v-297h-348z" />
<glyph unicode="&#xec;" horiz-adv-x="682" d="M-133 1479h426l213 -297h-242zM147 0v1028h390v-1028h-390z" />
<glyph unicode="&#xed;" horiz-adv-x="682" d="M147 0v1028h390v-1028h-390zM176 1182l213 297l426 -4l-397 -293h-242z" />
<glyph unicode="&#xee;" horiz-adv-x="682" d="M-74 1182l242 297h346l244 -297h-266l-152 157l-152 -157h-262zM147 0v1028h390v-1028h-390z" />
<glyph unicode="&#xef;" horiz-adv-x="682" d="M-100 1182v297h348v-297h-348zM147 0v1028h390v-1028h-390zM436 1182v297h348v-297h-348z" />
<glyph unicode="&#xf0;" d="M78 514q0 272 215 397q166 99 438 99q31 0 64 -2q-60 88 -162 155l-195 -127l-65 99l143 94q-123 76 -266 98l106 152q230 -23 387 -103l158 103l66 -97l-111 -71q182 -123 289 -299q106 -178 115 -357q2 -28 2 -57q0 -334 -183 -494q-153 -135 -403 -135 q-260 0 -420 131q-178 144 -178 414zM477 514q0 -319 199 -319q184 0 184 319q0 268 -184 268q-199 0 -199 -268z" />
<glyph unicode="&#xf1;" d="M123 1028h395l6 -113q123 144 322 144q168 0 276 -101q109 -102 109 -270v-688h-389v604q0 209 -150 209q-168 0 -168 -223v-590h-389v764q0 131 -12 264zM285 1180q6 116 90 209q82 90 198 90q70 0 203 -43t178 -43t66 80h166q-10 -107 -88 -197q-84 -96 -189 -96 q-69 0 -196 41t-181 41q-63 0 -90 -82h-157z" />
<glyph unicode="&#xf2;" d="M86 514q0 270 178 414q160 131 420 131t420 -131q178 -144 178 -414t-178 -414q-160 -131 -420 -131t-420 131q-178 144 -178 414zM209 1479h426l213 -297h-242zM485 514q0 -319 199 -319t199 319q0 320 -199 320t-199 -320z" />
<glyph unicode="&#xf3;" d="M86 514q0 270 178 414q160 131 420 131t420 -131q178 -144 178 -414t-178 -414q-160 -131 -420 -131t-420 131q-178 144 -178 414zM485 514q0 -319 199 -319t199 319q0 320 -199 320t-199 -320zM518 1182l213 297l426 -4l-397 -293h-242z" />
<glyph unicode="&#xf4;" d="M86 514q0 270 178 414q160 131 420 131t420 -131q178 -144 178 -414t-178 -414q-160 -131 -420 -131t-420 131q-178 144 -178 414zM293 1182l242 297h346l244 -297h-266l-152 157l-152 -157h-262zM485 514q0 -319 199 -319t199 319q0 320 -199 320t-199 -320z" />
<glyph unicode="&#xf5;" d="M86 514q0 270 178 414q160 131 420 131t420 -131q178 -144 178 -414t-178 -414q-160 -131 -420 -131t-420 131q-178 144 -178 414zM285 1180q6 116 90 209q82 90 198 90q70 0 203 -43t178 -43t66 80h166q-10 -107 -88 -197q-84 -96 -189 -96q-69 0 -196 41t-181 41 q-63 0 -90 -82h-157zM485 514q0 -319 199 -319t199 319q0 320 -199 320t-199 -320z" />
<glyph unicode="&#xf6;" d="M86 514q0 270 178 414q160 131 420 131t420 -131q178 -144 178 -414t-178 -414q-160 -131 -420 -131t-420 131q-178 144 -178 414zM242 1182v297h348v-297h-348zM485 514q0 -319 199 -319t199 319q0 320 -199 320t-199 -320zM778 1182v297h348v-297h-348z" />
<glyph unicode="&#xf7;" horiz-adv-x="1352" d="M160 391v246h1032v-246h-1032zM553 0v246h246v-246h-246zM553 782v246h246v-246h-246z" />
<glyph unicode="&#xf8;" d="M86 514q0 270 178 414q160 131 420 131q190 0 330 -74l127 154l98 -76l-121 -148q164 -143 164 -401q0 -270 -178 -414q-160 -131 -420 -131q-174 0 -299 62l-147 -178l-97 73l138 166q-193 141 -193 422zM485 514q0 -90 17 -149l325 393q-49 76 -143 76 q-199 0 -199 -320zM563 246q41 -51 121 -51q199 0 199 319q0 59 -9 109z" />
<glyph unicode="&#xf9;" d="M135 340v688h389v-604q0 -209 150 -209q168 0 168 223v590h389v-764q0 -131 12 -264h-395l-6 113q-123 -144 -322 -144q-168 0 -276 103q-109 100 -109 268zM209 1479h426l213 -297h-242z" />
<glyph unicode="&#xfa;" d="M135 340v688h389v-604q0 -209 150 -209q168 0 168 223v590h389v-764q0 -131 12 -264h-395l-6 113q-123 -144 -322 -144q-168 0 -276 103q-109 100 -109 268zM518 1182l213 297l426 -4l-397 -293h-242z" />
<glyph unicode="&#xfb;" d="M135 340v688h389v-604q0 -209 150 -209q168 0 168 223v590h389v-764q0 -131 12 -264h-395l-6 113q-123 -144 -322 -144q-168 0 -276 103q-109 100 -109 268zM268 1182l242 297h346l244 -297h-266l-152 157l-152 -157h-262z" />
<glyph unicode="&#xfc;" d="M135 340v688h389v-604q0 -209 150 -209q168 0 168 223v590h389v-764q0 -131 12 -264h-395l-6 113q-123 -144 -322 -144q-168 0 -276 103q-109 100 -109 268zM242 1182v297h348v-297h-348zM778 1182v297h348v-297h-348z" />
<glyph unicode="&#xfd;" horiz-adv-x="1251" d="M16 1028h416l207 -715l221 715h359l-560 -1421h-358l145 362zM461 1182l213 297l426 -4l-397 -293h-242z" />
<glyph unicode="&#xfe;" d="M115 -393v1872h389l4 -596q113 176 334 176q215 0 334 -164q104 -145 104 -367q0 -241 -117 -393q-129 -166 -364 -166q-168 0 -295 154v-516h-389zM504 514q0 -319 188 -319q189 0 189 319q0 320 -189 320q-188 0 -188 -320z" />
<glyph unicode="&#xff;" horiz-adv-x="1251" d="M16 1028h416l207 -715l221 715h359l-560 -1421h-358l145 362zM185 1182v297h348v-297h-348zM721 1182v297h348v-297h-348z" />
<glyph unicode="&#x152;" horiz-adv-x="2048" d="M59 750q0 219 105 401q110 197 307 272q141 56 406 56h1052v-287h-551v-305h508v-287h-508v-313h570v-287h-1127q-346 0 -553 205q-209 203 -209 545zM489 741q0 -196 80 -325q97 -154 281 -154l119 12v936l-119 13q-361 0 -361 -482z" />
<glyph unicode="&#x153;" horiz-adv-x="2048" d="M78 514q0 270 178 414q160 131 420 131q264 0 422 -168q125 168 332 168q299 0 432 -168q118 -150 118 -455h-737v-10q0 -231 182 -231q166 0 187 141h368q-10 -176 -186 -283q-137 -84 -342 -84q-274 0 -383 185q-160 -185 -393 -185q-260 0 -420 131q-178 144 -178 414 zM477 514q0 -319 199 -319q198 0 198 319q0 320 -198 320q-199 0 -199 -320zM1251 645h361q0 88 -45 152q-49 67 -129 67h-8q-160 -8 -179 -219z" />
<glyph unicode="&#x178;" horiz-adv-x="1593" d="M20 1479h476l323 -621l334 621h422l-580 -938v-541h-409v541zM357 1633v297h348v-297h-348zM893 1633v297h348v-297h-348z" />
<glyph unicode="&#x2c6;" horiz-adv-x="682" d="M-74 1182l242 297h346l244 -297h-266l-152 157l-152 -157h-262z" />
<glyph unicode="&#x2dc;" horiz-adv-x="682" d="M-57 1180q6 116 90 209q82 90 198 90q70 0 203 -43t178 -43t66 80h166q-10 -107 -88 -197q-84 -96 -189 -96q-69 0 -196 41t-181 41q-63 0 -90 -82h-157z" />
<glyph unicode="&#x2000;" horiz-adv-x="1000" />
<glyph unicode="&#x2001;" horiz-adv-x="2001" />
<glyph unicode="&#x2002;" horiz-adv-x="1000" />
<glyph unicode="&#x2003;" horiz-adv-x="2001" />
<glyph unicode="&#x2004;" horiz-adv-x="667" />
<glyph unicode="&#x2005;" horiz-adv-x="500" />
<glyph unicode="&#x2006;" horiz-adv-x="333" />
<glyph unicode="&#x2007;" horiz-adv-x="333" />
<glyph unicode="&#x2008;" horiz-adv-x="250" />
<glyph unicode="&#x2009;" horiz-adv-x="400" />
<glyph unicode="&#x200a;" horiz-adv-x="111" />
<glyph unicode="&#x2010;" horiz-adv-x="682" d="M51 424v246h582v-246h-582z" />
<glyph unicode="&#x2011;" horiz-adv-x="682" d="M51 424v246h582v-246h-582z" />
<glyph unicode="&#x2012;" horiz-adv-x="682" d="M51 424v246h582v-246h-582z" />
<glyph unicode="&#x2013;" horiz-adv-x="1024" d="M0 424v246h1024v-246h-1024z" />
<glyph unicode="&#x2014;" horiz-adv-x="2048" d="M0 424v246h2048v-246h-2048z" />
<glyph unicode="&#x2018;" horiz-adv-x="682" d="M55 932l242 547h278l-135 -547h-385z" />
<glyph unicode="&#x2019;" horiz-adv-x="682" d="M106 932l136 547h385l-242 -547h-279z" />
<glyph unicode="&#x201a;" horiz-adv-x="682" d="M102 -197l123 484h357l-217 -484h-263z" />
<glyph unicode="&#x201c;" d="M209 995l217 484h262l-123 -484h-356zM696 995l217 484h263l-123 -484h-357z" />
<glyph unicode="&#x201d;" d="M190 995l123 484h357l-217 -484h-263zM678 995l123 484h356l-217 -484h-262z" />
<glyph unicode="&#x201e;" d="M190 -197l123 484h357l-217 -484h-263zM678 -197l123 484h356l-217 -484h-262z" />
<glyph unicode="&#x2022;" horiz-adv-x="1024" d="M143 739q0 154 109 262q106 107 260 107t262 -107q109 -108 109 -262q0 -153 -109 -262q-108 -108 -262 -108t-260 108q-109 109 -109 262z" />
<glyph unicode="&#x2026;" horiz-adv-x="2048" d="M158 0v307h368v-307h-368zM840 0v307h368v-307h-368zM1522 0v307h368v-307h-368z" />
<glyph unicode="&#x202f;" horiz-adv-x="400" />
<glyph unicode="&#x2039;" horiz-adv-x="682" d="M57 547l258 399h312l-242 -399l238 -400h-314z" />
<glyph unicode="&#x203a;" horiz-adv-x="682" d="M55 147l242 400l-238 399h314l252 -399l-258 -400h-312z" />
<glyph unicode="&#x205f;" horiz-adv-x="500" />
<glyph unicode="&#x20ac;" horiz-adv-x="1536" d="M-14 395l116 236h99v102h-215l116 236h152q61 198 240 321q186 129 448 129q324 0 531 -207l-117 -247q-146 219 -424 219q-295 0 -387 -215h813l-2 -4l-111 -232h-745q-2 -33 -2 -55q0 -19 2 -47h696l-111 -236h-520q41 -84 133 -137q107 -61 244 -61q256 0 426 192 v-295q-63 -51 -174 -88q-133 -47 -283 -47q-254 0 -430 129q-155 113 -225 307h-270z" />
<glyph unicode="&#x2122;" horiz-adv-x="1946" d="M31 1315v164h702v-164h-258v-664h-184v664h-260zM829 651v828h299l183 -490l182 490h299v-828h-184l-4 668l-240 -668h-107l-243 668v-668h-185z" />
<glyph unicode="&#xe000;" horiz-adv-x="1030" d="M0 0v1030h1030v-1030h-1030z" />
</font>
</defs>
</svg>
