<?xml version="1.0" standalone="no"?>
<!DOCTYPE svg PUBLIC "-//W3C//DTD SVG 1.1//EN" "http://www.w3.org/Graphics/SVG/1.1/DTD/svg11.dtd" >
<svg xmlns="http://www.w3.org/2000/svg">
<metadata></metadata>
<defs>
<font id="univers_55regular" horiz-adv-x="1139" >
<font-face units-per-em="2048" ascent="1638" descent="-410" />
<missing-glyph horiz-adv-x="569" />
<glyph horiz-adv-x="2048" />
<glyph horiz-adv-x="2048" />
<glyph unicode="&#xd;" horiz-adv-x="569" />
<glyph unicode=" "  horiz-adv-x="569" />
<glyph unicode="&#x09;" horiz-adv-x="569" />
<glyph unicode="&#xa0;" horiz-adv-x="569" />
<glyph unicode="!" horiz-adv-x="797" d="M305 1472h231l-32 -1134h-167zM312 0v204h217v-204h-217z" />
<glyph unicode="&#x22;" horiz-adv-x="819" d="M163 1411h170l-32 -496h-106zM501 1411h170l-32 -496h-106z" />
<glyph unicode="#" d="M13 408v142h232l59 306h-207v142h234l79 426h165l-79 -426h251l79 426h165l-79 -426h206v-142h-233l-59 -306h208v-142h-235l-75 -408h-165l75 408h-251l-75 -408h-165l75 408h-205zM410 550h251l59 306h-251z" />
<glyph unicode="$" d="M56 393h214q0 -99 62 -166q63 -66 184 -66v486l-164 59q-166 59 -217 146q-51 88 -51 199q0 157 111 265t321 108v176h109v-171q442 -15 442 -341h-214q-7 83 -58 121q-50 39 -170 50v-428q266 -69 365 -170q99 -100 99 -256q0 -181 -126 -291q-125 -109 -338 -121v-208 h-109v208q-200 0 -330 97q-130 98 -130 303zM283 1065q0 -142 233 -200v391q-233 -27 -233 -191zM625 161q120 0 185 65t65 155q0 74 -44 128q-43 54 -206 110v-458z" />
<glyph unicode="%" horiz-adv-x="1821" d="M112 1098q0 160 88 265q89 106 265 106q158 0 237 -98q80 -98 80 -259q0 -164 -85 -269q-84 -105 -250 -105q-168 0 -252 100q-83 101 -83 260zM270 1098q0 -237 180 -237q174 0 174 237q0 248 -174 248q-180 0 -180 -248zM384 -82l906 1588h134l-903 -1588h-137z M1058 338q0 160 88 265q89 106 265 106q158 0 237 -98q80 -98 80 -259q0 -164 -85 -269q-84 -105 -250 -105q-168 0 -252 100q-83 101 -83 260zM1216 338q0 -237 180 -237q174 0 174 237q0 248 -174 248q-180 0 -180 -248z" />
<glyph unicode="&#x26;" horiz-adv-x="1593" d="M99 393q0 99 51 207q51 109 260 258q-170 156 -170 333q0 158 110 242q110 85 293 85q190 0 290 -82q101 -81 101 -209q0 -124 -72 -216q-72 -91 -215 -189l366 -354q54 83 82 199q28 117 28 284h198q0 -204 -41 -344q-41 -139 -140 -268l357 -339h-288l-195 184 q-228 -215 -519 -215q-216 0 -356 115t-140 309zM317 400q0 -120 84 -189q84 -68 226 -68q192 0 347 160l-430 428q-227 -166 -227 -331zM458 1203q0 -100 157 -248q201 136 201 263q0 58 -47 97q-47 40 -121 40q-91 0 -141 -47q-49 -47 -49 -105z" />
<glyph unicode="'" horiz-adv-x="569" d="M208 1411h170l-32 -496h-106z" />
<glyph unicode="(" horiz-adv-x="682" d="M146 637q0 -238 100 -514q99 -275 134 -367h135q-91 297 -136 484q-45 188 -45 390q0 179 46 374q45 196 146 527h-135q-127 -322 -186 -511q-59 -188 -59 -383z" />
<glyph unicode=")" horiz-adv-x="682" d="M156 1531h135q127 -322 186 -511q59 -188 59 -383q0 -238 -100 -514q-99 -275 -134 -367h-135q91 297 136 484q45 188 45 390q0 179 -46 374q-45 196 -146 527z" />
<glyph unicode="*" d="M160 988v141l352 -32l-213 291l131 77l146 -324l139 324l138 -77l-213 -291l352 32v-141l-352 32l213 -287l-131 -81l-144 324l-141 -324l-138 77l213 291z" />
<glyph unicode="+" horiz-adv-x="1196" d="M80 438v160h448v448h165v-448h448v-160h-448v-448h-165v448h-448z" />
<glyph unicode="," horiz-adv-x="569" d="M96 -251l131 496h238l-231 -496h-138z" />
<glyph unicode="-" horiz-adv-x="682" d="M80 458v157h512v-157h-512z" />
<glyph unicode="." horiz-adv-x="569" d="M167 0v246h227v-246h-227z" />
<glyph unicode="/" horiz-adv-x="569" d="M-18 -31l473 1488h135l-473 -1488h-135z" />
<glyph unicode="0" d="M90 700q0 754 487 754q217 0 340 -182q124 -181 124 -548q0 -380 -127 -567q-126 -187 -352 -187q-233 0 -353 188q-119 188 -119 542zM289 694q0 -556 270 -556q283 0 283 570q0 578 -272 578q-281 0 -281 -592z" />
<glyph unicode="1" d="M224 992v205q217 109 352 227h183v-1424h-199v1197q-149 -121 -336 -205z" />
<glyph unicode="2" d="M109 0v187l370 364q327 320 327 499q0 116 -64 176t-165 60q-232 0 -232 -248h-214q0 182 117 299q118 117 323 117q188 0 311 -107q123 -106 123 -309q0 -164 -148 -339t-288 -311l-227 -220h666v-168h-899z" />
<glyph unicode="3" d="M78 370h214q0 -232 268 -232q129 0 207 68t78 183q0 264 -339 264h-43q-25 0 -33 -3v174h21q17 0 28 -3q163 0 253 58q91 59 91 187q0 110 -65 165q-64 55 -191 55q-102 0 -181 -55q-79 -54 -87 -161h-199q0 168 123 276t331 108q219 0 343 -110q125 -109 125 -275 q0 -126 -76 -216t-207 -118q135 -19 220 -110t85 -237q0 -178 -139 -298q-138 -120 -340 -120q-246 0 -367 110q-120 111 -120 290z" />
<glyph unicode="4" d="M56 312v239l612 873h220v-944h208v-168h-208v-312h-199v312h-633zM214 480h475v718z" />
<glyph unicode="5" d="M115 338h214q0 -80 65 -140t179 -60q117 0 193 84q76 85 76 239q0 146 -74 222q-73 76 -191 76q-109 0 -175 -55t-82 -129h-186l37 849h795v-168h-618l-28 -460q135 131 299 131q196 0 309 -131q113 -130 113 -336q0 -234 -145 -362q-144 -128 -351 -128q-177 0 -300 96 q-122 96 -130 272z" />
<glyph unicode="6" d="M106 648q0 390 133 598t384 208q181 0 298 -94q117 -93 117 -274h-214q0 105 -60 159q-59 54 -151 54q-165 0 -232 -146t-76 -394q124 179 326 179q196 0 311 -128t115 -333q0 -228 -138 -368q-138 -139 -338 -139q-242 0 -359 174q-116 175 -116 504zM321 460 q0 -141 76 -232q76 -90 190 -90q116 0 193 86q78 86 78 244q0 153 -70 234t-188 81q-121 0 -200 -86q-79 -85 -79 -237z" />
<glyph unicode="7" d="M64 1256v168h928v-172l-512 -1252h-233l537 1256h-720z" />
<glyph unicode="8" d="M75 376q0 288 318 375q-132 33 -209 115q-77 83 -77 201q0 157 114 272q115 115 342 115q209 0 336 -103t127 -278q0 -122 -78 -208t-211 -112q159 -41 232 -130q73 -88 73 -231q0 -182 -130 -302t-342 -120q-234 0 -365 115q-130 116 -130 291zM274 403q0 -104 75 -185 q75 -80 212 -80q133 0 207 70q75 71 75 199q0 118 -78 189q-77 72 -198 72q-137 0 -215 -78q-78 -77 -78 -187zM306 1068q0 -106 74 -167q74 -60 184 -60q109 0 186 60q77 61 77 165q0 110 -73 171q-72 62 -185 62q-112 0 -188 -63q-75 -62 -75 -168z" />
<glyph unicode="9" d="M90 997q0 207 122 332q123 125 331 125q243 0 370 -170q128 -170 128 -549q0 -413 -135 -589q-134 -176 -382 -176q-198 0 -313 94q-115 95 -115 274h214q0 -200 229 -200q303 0 303 491q0 -491 0 97q-109 -179 -317 -179q-198 0 -317 124q-118 125 -118 326zM289 996 q0 -145 77 -220q78 -74 193 -74q106 0 182 74q76 75 76 222q0 138 -78 219q-78 82 -194 82q-114 0 -185 -83t-71 -220z" />
<glyph unicode=":" horiz-adv-x="569" d="M171 0v246h227v-246h-227zM171 793v246h227v-246h-227z" />
<glyph unicode=";" horiz-adv-x="569" d="M96 -251l131 496h238l-231 -496h-138zM200 793v246h227v-246h-227z" />
<glyph unicode="&#x3c;" horiz-adv-x="1196" d="M81 431l1040 -416v177l-829 322l829 323v177l-1040 -416v-167z" />
<glyph unicode="=" horiz-adv-x="1196" d="M80 230v160h1040v-160h-1040zM80 646v160h1040v-160h-1040z" />
<glyph unicode="&#x3e;" horiz-adv-x="1196" d="M75 15v177l829 322l-829 323v177l1040 -416v-167z" />
<glyph unicode="?" horiz-adv-x="1024" d="M141 1272v189q129 42 288 42q243 0 361 -105q119 -104 119 -261q0 -104 -44 -175t-171 -203l-122 -126q-36 -40 -36 -85v-216h-170v232q0 74 61 144l97 104q88 98 130 162q42 65 42 142q0 214 -269 214q-155 0 -286 -58zM348 0v204h209v-204h-209z" />
<glyph unicode="@" horiz-adv-x="2079" d="M288 715q0 354 235 574q236 221 586 221q295 0 488 -166q193 -165 193 -439q0 -242 -133 -392t-289 -150q-75 0 -122 41q-46 41 -46 104q0 26 16 63q-103 -208 -292 -208q-121 0 -196 82q-74 83 -74 218q0 187 118 335q119 149 285 149q193 0 238 -160l35 129h142 l-146 -476q-14 -49 -14 -93q0 -81 93 -81q104 0 197 127q94 127 94 316q0 239 -167 374q-167 136 -418 136q-319 0 -524 -197q-205 -196 -205 -510q0 -286 188 -470q189 -183 512 -183q151 0 299 56t263 141l50 -70q-164 -120 -317 -169q-152 -49 -298 -49q-362 0 -577 211 q-214 212 -214 536zM817 660q0 -194 148 -194q127 0 208 186q59 135 59 236q0 71 -42 113q-41 43 -107 43q-100 0 -183 -123q-83 -122 -83 -261z" />
<glyph unicode="A" horiz-adv-x="1479" d="M0 1503zM19 0l608 1472h218l608 -1472h-224l-163 384h-681l-155 -384h-211zM453 558h545l-272 713zM747 1583zM1403 0z" />
<glyph unicode="B" horiz-adv-x="1366" d="M195 0v1472h546h41q195 0 306 -101q112 -100 112 -271q0 -254 -250 -333q295 -80 295 -369q0 -185 -123 -292q-122 -106 -373 -106h-554zM400 174h328q140 0 219 64q80 64 80 187q0 118 -79 184q-78 66 -200 66h-348v-501zM400 849h300q282 0 282 228q0 114 -70 167 q-69 54 -198 54h-314v-449z" />
<glyph unicode="C" horiz-adv-x="1366" d="M112 724q0 343 164 561q165 218 485 218q243 0 386 -123t143 -293h-218q-36 242 -322 242q-209 0 -315 -162q-105 -161 -105 -450q0 -574 426 -574q276 0 316 242h218q-11 -165 -152 -291q-140 -125 -400 -125q-294 0 -460 196t-166 559zM756 0zM765 1583z" />
<glyph unicode="D" horiz-adv-x="1479" d="M0 1503zM179 0v1472h507q361 0 533 -206q173 -206 173 -547q0 -329 -160 -524q-159 -195 -555 -195h-498zM384 174h253q295 0 416 144q121 145 121 405q0 280 -126 427q-125 148 -392 148h-272v-1124zM677 1583z" />
<glyph unicode="E" horiz-adv-x="1251" d="M0 1503zM157 0v1472h925v-174h-720v-457h685v-174h-685v-493h736v-174h-941zM666 1583zM1024 0z" />
<glyph unicode="F" d="M198 0v1472h877v-174h-672v-457h634v-174h-634v-667h-205z" />
<glyph unicode="G" horiz-adv-x="1593" d="M138 718q0 315 180 550t547 235q267 0 407 -122q140 -121 140 -278h-218q-15 104 -105 165q-89 61 -229 61q-254 0 -379 -165t-125 -442q0 -252 122 -416q123 -163 410 -163q158 0 319 45v420h-339v174h544v-721q-254 -92 -508 -92q-395 0 -581 212q-185 212 -185 537z M825 1583zM865 0z" />
<glyph unicode="H" horiz-adv-x="1479" d="M179 0v1472h205v-631h707v631h205v-1472h-205v667h-707v-667h-205z" />
<glyph unicode="I" horiz-adv-x="569" d="M0 1503zM179 0v1472h205v-1472h-205zM284 1583zM326 0z" />
<glyph unicode="J" d="M42 393h218q0 -128 61 -185t165 -57q96 0 168 59q73 60 73 209v1053h205v-1075q0 -196 -130 -308t-332 -112q-199 0 -314 109q-114 110 -114 307z" />
<glyph unicode="K" horiz-adv-x="1366" d="M189 0v1472h205v-644l614 644h282l-659 -661l729 -811h-288l-678 782v-782h-205zM742 0z" />
<glyph unicode="L" d="M0 1503zM192 0v1472h205v-1298h688v-174h-893zM304 1583zM663 0z" />
<glyph unicode="M" horiz-adv-x="1933" d="M186 0v1472h362l425 -1213l429 1213h339v-1472h-198v1323l-490 -1323h-195l-474 1323v-1323h-198z" />
<glyph unicode="N" horiz-adv-x="1593" d="M0 1503zM195 0v1472h285l723 -1219v1219h189v-1472h-262l-746 1242v-1242h-189zM812 0zM826 1583z" />
<glyph unicode="O" horiz-adv-x="1593" d="M122 736q0 356 182 561q183 206 506 206q317 0 491 -200q175 -199 175 -555q0 -366 -175 -573q-174 -206 -507 -206q-342 0 -507 200q-165 201 -165 567zM340 736q0 -285 116 -439q117 -154 336 -154q466 0 466 607q0 579 -448 579q-470 0 -470 -593zM825 1583z" />
<glyph unicode="P" horiz-adv-x="1251" d="M179 0v1472h514h21q245 0 357 -113q113 -112 113 -291q0 -194 -126 -305q-125 -111 -427 -111h-247v-652h-205zM384 826h257q325 0 325 247q0 225 -271 225h-311v-472z" />
<glyph unicode="Q" horiz-adv-x="1593" d="M118 736q0 359 183 563q184 204 504 204q302 0 468 -200q167 -200 167 -547q0 -415 -269 -621q145 28 257 28h124v-163h-292q-118 0 -300 -16q-182 -15 -203 -15q-285 0 -462 199t-177 568zM336 731q0 -265 116 -427q117 -161 324 -161q212 0 329 156t117 423 q0 289 -115 448t-331 159q-212 0 -326 -165t-114 -433z" />
<glyph unicode="R" horiz-adv-x="1366" d="M0 1503zM176 0v1472h547q243 0 366 -100q124 -100 124 -267q0 -135 -80 -233q-79 -97 -202 -123q105 -24 156 -83q51 -58 67 -172q14 -105 34 -244t63 -250h-218q-39 127 -70 411q-16 151 -82 203q-66 53 -227 53h-273v-667h-205zM381 841h324q182 0 236 62q54 63 54 158 q0 122 -69 179q-69 58 -207 58h-338v-457zM699 1583zM715 0z" />
<glyph unicode="S" horiz-adv-x="1366" d="M112 433h218q0 -290 350 -290q168 0 251 78q83 79 83 182q0 94 -59 145q-59 52 -211 92l-260 63q-190 50 -273 136t-83 239q0 195 163 310q164 115 407 115q237 0 369 -107q133 -106 133 -293h-218q-15 226 -313 226q-153 0 -238 -64t-85 -170q0 -105 67 -148t206 -75 l263 -68q176 -44 263 -138t87 -240q0 -208 -154 -333q-153 -124 -419 -124q-261 0 -404 113t-143 351zM648 0zM673 1583z" />
<glyph unicode="T" horiz-adv-x="1251" d="M0 1503zM48 1298v174h1197v-174h-496v-1298h-205v1298h-496zM651 0zM651 1583z" />
<glyph unicode="U" horiz-adv-x="1593" d="M0 1503zM192 532v36v904h205v-929q0 -213 111 -307q112 -93 297 -93q189 0 292 95t103 326v908h205v-922q0 -271 -162 -426t-430 -155q-284 0 -453 142q-168 143 -168 421zM789 1583zM969 0z" />
<glyph unicode="V" horiz-adv-x="1366" d="M32 1472h227l419 -1253l426 1253h208l-528 -1472h-224z" />
<glyph unicode="W" horiz-adv-x="2048" d="M16 1472h218l330 -1213l348 1213h256l336 -1207l326 1207h202l-432 -1472h-224l-349 1254l-355 -1254h-224z" />
<glyph unicode="X" horiz-adv-x="1479" d="M38 0l578 771l-517 701h262l402 -569l405 569h246l-530 -701l556 -771h-256l-445 633l-455 -633h-246z" />
<glyph unicode="Y" horiz-adv-x="1366" d="M0 1503zM16 1472h253l435 -724l439 724h230l-576 -897v-575h-205v575zM689 1583z" />
<glyph unicode="Z" horiz-adv-x="1251" d="M0 1503zM70 0v201l861 1097h-839v174h1082v-201l-867 -1097h880v-174h-1117zM625 1583z" />
<glyph unicode="[" horiz-adv-x="682" d="M209 -254h355v108h-192v1569h192v108h-355v-1785z" />
<glyph unicode="\" horiz-adv-x="569" d="M-18 1457h135l473 -1489h-135z" />
<glyph unicode="]" horiz-adv-x="682" d="M124 -146h192v1569h-192v108h355v-1785h-355v108z" />
<glyph unicode="^" horiz-adv-x="1196" d="M167 552l352 865h157l352 -865h-176l-259 652l-250 -652h-176z" />
<glyph unicode="_" horiz-adv-x="1024" d="M0 -151h1024v-103h-1024v103z" />
<glyph unicode="`" horiz-adv-x="569" d="M3 1504h233l167 -288h-127zM300 1216z" />
<glyph unicode="a" d="M109 273q0 165 133 263t408 98q33 0 141 -7q0 170 -30 208q-57 77 -190 77q-195 0 -207 -165h-193q19 304 405 304q179 0 291 -71q113 -70 113 -202v-544q0 -161 16 -226h-183q-19 94 -19 157q-101 -192 -321 -192q-158 0 -261 80t-103 220zM308 297q0 -75 56 -123 q56 -47 155 -47q136 0 204 78t68 284q-68 6 -125 6q-358 0 -358 -198zM587 1211zM941 0z" />
<glyph unicode="b" horiz-adv-x="1251" d="M168 0q9 78 9 167v1305h199v-597q15 29 107 102q93 74 233 74q211 0 327 -135q117 -135 117 -387q0 -268 -127 -412q-126 -144 -342 -144q-97 0 -187 44q-89 44 -134 132l-9 -149h-193zM376 503q0 -391 295 -391q131 0 210 104q80 105 80 302q0 178 -75 286 q-74 108 -213 108q-142 0 -220 -108q-77 -107 -77 -301z" />
<glyph unicode="c" horiz-adv-x="1024" d="M93 495q0 275 132 415q132 141 331 141q196 0 299 -101q104 -100 109 -251h-199q-15 213 -203 213q-270 0 -270 -391q0 -409 262 -409q90 0 155 60q65 61 65 169h199q0 -140 -113 -254t-306 -114q-217 0 -339 133q-122 134 -122 389zM556 0zM576 1211z" />
<glyph unicode="d" horiz-adv-x="1251" d="M109 487q0 262 126 413q127 151 340 151q232 0 318 -176v597h199v-1305q0 -73 9 -167h-193l-9 156q-37 -83 -135 -133q-97 -50 -211 -50q-198 0 -321 135q-123 136 -123 379zM308 506q0 -394 279 -394q306 0 306 406q0 192 -81 293t-221 101q-132 0 -208 -101 q-75 -101 -75 -305z" />
<glyph unicode="e" d="M106 499q0 271 124 411q124 141 354 141q223 0 340 -122q117 -121 117 -351v-104h-736q0 -362 291 -362q92 0 160 54t77 159h199q-7 -152 -127 -252q-119 -100 -318 -100q-226 0 -354 130q-127 130 -127 396zM314 613h528q0 299 -252 299q-126 0 -201 -83t-75 -216z M584 1211zM731 0z" />
<glyph unicode="f" horiz-adv-x="682" d="M48 885v139h192v161q0 164 77 237q78 73 241 73q87 0 153 -14v-153q-11 2 -50 3q-38 1 -56 1q-97 0 -132 -30q-34 -29 -34 -100v-178h240v-139h-240v-885h-199v885h-192z" />
<glyph unicode="g" horiz-adv-x="1251" d="M106 521q0 256 128 393t332 137q212 0 320 -160l4 133h186q-2 -17 -2 -76q0 -58 -1 -91v-695q0 -215 -22 -305q-21 -89 -84 -149q-110 -112 -369 -112q-230 0 -333 76q-103 77 -106 260h205q8 -197 237 -197q174 0 230 114q43 87 43 343q-78 -176 -324 -176 q-229 0 -337 140q-107 140 -107 365zM305 528q0 -180 71 -277q72 -96 202 -96q151 0 223 100q73 101 73 299q0 188 -85 273t-211 85q-273 0 -273 -384zM627 1211z" />
<glyph unicode="h" horiz-adv-x="1251" d="M180 0v1472h199v-597q44 83 134 129q91 47 194 47q153 0 256 -84q104 -84 104 -265v-702h-199v663q0 102 -53 171q-52 69 -170 69q-127 0 -197 -91q-69 -91 -69 -241v-571h-199z" />
<glyph unicode="i" horiz-adv-x="569" d="M161 1264v211h243v-211h-243zM183 0v1024h199v-1024h-199zM312 0z" />
<glyph unicode="j" horiz-adv-x="569" d="M-3 -259q10 -2 20 -2h23q82 0 114 35q32 36 32 151v1099h199v-1124q0 -152 -64 -226t-212 -74q-28 0 -63 4q-35 5 -49 5v132zM164 1264v211h243v-211h-243z" />
<glyph unicode="k" horiz-adv-x="1024" d="M165 0v1472h199v-868l388 420h252l-438 -436l466 -588h-252l-416 552v-552h-199zM571 0z" />
<glyph unicode="l" horiz-adv-x="569" d="M183 0v1472h199v-1472h-199zM289 0zM289 1632z" />
<glyph unicode="m" horiz-adv-x="1933" d="M177 1024h196l3 -149q91 176 329 176t328 -192q69 105 149 148q80 44 212 44q153 0 257 -91t104 -262v-698h-199v656q0 136 -65 191q-64 56 -157 56q-134 0 -201 -80q-66 -79 -66 -240v-583h-199v656q0 137 -64 192q-63 55 -158 55q-116 0 -192 -80q-75 -79 -75 -216 v-607h-199v896q0 10 -1 58q-1 49 -2 70z" />
<glyph unicode="n" horiz-adv-x="1251" d="M183 1024h193l9 -165q95 192 327 192q135 0 238 -69q139 -91 139 -280v-702h-199v663q0 115 -54 167q-72 73 -181 73q-113 0 -188 -76q-82 -83 -82 -213v-614h-199v896q0 57 -3 128zM659 0zM669 1211z" />
<glyph unicode="o" horiz-adv-x="1251" d="M106 508q0 252 139 397q139 146 385 146q235 0 371 -141q136 -140 136 -390t-142 -399q-141 -148 -382 -148q-230 0 -369 142q-138 142 -138 393zM305 512q0 -190 86 -295q87 -105 233 -105q132 0 223 103q91 104 91 316q0 183 -85 282t-219 99q-141 0 -235 -100 t-94 -300zM630 1211z" />
<glyph unicode="p" horiz-adv-x="1251" d="M171 1024h193l4 -165q116 192 351 192q195 0 316 -136q122 -136 122 -395q0 -253 -129 -400q-128 -147 -340 -147q-98 0 -187 42q-89 43 -128 118v-533h-199v1252q-2 34 -2 94q0 61 -1 78zM373 487v14q0 -389 283 -389q140 0 221 107t81 318q0 375 -281 375 q-304 0 -304 -425z" />
<glyph unicode="q" horiz-adv-x="1251" d="M102 520q0 240 114 385q114 146 325 146q235 0 353 -192l7 175h193q-9 -101 -9 -174v-1260h-199v527q-34 -62 -121 -108t-194 -46q-213 0 -341 147t-128 400zM301 537q0 -211 80 -318t222 -107q283 0 283 379q0 421 -302 421q-283 0 -283 -375z" />
<glyph unicode="r" horiz-adv-x="797" d="M186 1024h193l4 -181q60 208 322 208h51v-185q-31 4 -82 4q-286 0 -286 -313v-557h-199v896q0 57 -3 128zM310 0zM490 1211z" />
<glyph unicode="s" horiz-adv-x="1024" d="M90 309h199q0 -197 230 -197q217 0 217 165q0 66 -54 96q-54 31 -229 67q-188 40 -265 109q-76 69 -76 188q0 141 110 227q110 87 284 87q194 0 297 -72q104 -72 104 -232h-199q0 165 -197 165q-200 0 -200 -147q0 -96 160 -134l113 -25q214 -50 282 -122q69 -72 69 -180 q0 -150 -111 -241q-111 -90 -335 -90q-184 0 -292 83q-107 83 -107 253zM495 0zM527 1211z" />
<glyph unicode="t" horiz-adv-x="682" d="M22 885v139h183v211l199 61v-272h224v-139h-224v-635q0 -125 137 -125q62 0 93 11v-148q-42 -15 -158 -15q-151 0 -211 49t-60 168v695h-183zM363 0z" />
<glyph unicode="u" horiz-adv-x="1251" d="M0 1051zM158 330v694h199v-653q0 -144 54 -197t159 -53q130 0 211 74q81 75 81 208v621h199v-896q0 -57 3 -128h-196l-9 165q-95 -192 -326 -192q-176 0 -276 90q-99 91 -99 267zM615 1211zM1011 0z" />
<glyph unicode="v" d="M32 1024h214l349 -812l318 812h214l-448 -1024h-199z" />
<glyph unicode="w" horiz-adv-x="1706" d="M25 1024h214l256 -804l266 804h255l225 -812l245 812h202l-352 -1024h-224l-233 836l-278 -836h-224z" />
<glyph unicode="x" d="M25 0l405 536l-383 488h252l272 -380l283 380h227l-398 -496l398 -528h-255l-286 408l-288 -408h-227z" />
<glyph unicode="y" d="M0 1051zM25 1024h214l329 -791l315 791h214l-443 -1000l-157 -406h-199l155 390zM565 1211z" />
<glyph unicode="z" horiz-adv-x="909" d="M0 1051zM62 0v196l548 689h-520v139h740v-164l-566 -721h566v-139h-768zM466 1211z" />
<glyph unicode="{" horiz-adv-x="684" d="M0 593v103q164 20 218 88t54 197v108q0 234 91 331q91 98 325 116v-103q-253 -19 -253 -295v-114q0 -191 -63 -274q-62 -83 -209 -106q145 -23 208 -103q64 -79 64 -274v-94q0 -172 58 -241t195 -85v-103q-252 23 -334 124q-82 102 -82 337v95q0 144 -58 207 q-58 64 -214 86z" />
<glyph unicode="|" horiz-adv-x="532" d="M176 -512v2048h170v-2048h-170z" />
<glyph unicode="}" horiz-adv-x="684" d="M0 -153q136 16 194 84q59 69 59 240v91q0 195 63 274q63 80 209 102q-148 22 -210 108t-62 275v114q0 280 -253 298v103q234 -20 325 -117t91 -332v-149q0 -97 58 -164q59 -66 214 -84v-103q-157 -21 -215 -85q-57 -63 -57 -205v-96q0 -254 -90 -346q-89 -92 -326 -111 v103z" />
<glyph unicode="~" horiz-adv-x="1196" d="M55 346q9 136 80 227q72 91 197 91q78 0 285 -73q207 -72 261 -72q63 0 102 41q39 42 48 104h115q-17 -134 -87 -218q-69 -84 -187 -84q-90 0 -284 72q-193 73 -273 73q-60 0 -97 -49q-37 -48 -45 -112h-115z" />
<glyph unicode="&#xa1;" horiz-adv-x="797" d="M261 -446l32 1134h167l32 -1134h-231zM268 822v204h217v-204h-217z" />
<glyph unicode="&#xa2;" d="M109 501q0 264 125 412t337 148q58 0 109 -11l70 251h96l-76 -278q203 -88 210 -314h-199q-7 96 -57 147l-205 -735q24 -7 51 -7q90 0 155 59q65 60 65 165h199q0 -146 -114 -257t-308 -111q-47 0 -90 7l-76 -279h-99l86 301q-279 103 -279 502zM308 525q0 -281 124 -370 l208 753q-28 9 -61 9q-271 0 -271 -392z" />
<glyph unicode="&#xa3;" d="M65 712v139h152v57v38q0 287 123 408q124 122 327 122q199 0 318 -88t119 -248h-202q0 92 -64 148q-63 57 -156 57q-127 0 -197 -76q-69 -75 -69 -234v-49v-135h289v-139h-289v-573h654v-139h-990v139h137v573h-152z" />
<glyph unicode="&#xa4;" d="M78 320l132 131q-82 115 -82 257q0 138 82 253l-132 129l101 101l131 -130q113 82 257 82q138 0 253 -82l129 130l101 -101l-130 -129q82 -115 82 -253q0 -144 -82 -257l130 -131l-101 -101l-129 132q-115 -82 -253 -82q-142 0 -257 82l-131 -132zM282 706 q0 -119 82 -201t201 -82q118 0 200 82q83 82 83 201q0 118 -83 200q-82 83 -200 83q-119 0 -201 -83q-82 -82 -82 -200z" />
<glyph unicode="&#xa5;" d="M0 1483h255l327 -730l327 730h233l-397 -777h301v-126h-368v-112h368v-126h-368v-342h-214v342h-368v126h368v112h-368v126h306z" />
<glyph unicode="&#xa6;" horiz-adv-x="532" d="M176 -352v720h170v-720h-170zM176 672v720h170v-720h-170z" />
<glyph unicode="&#xa7;" d="M195 699q0 193 221 266q-189 52 -189 232q0 138 99 211q99 74 267 74q127 0 238 -35v-157q-121 54 -217 54q-185 0 -185 -133q0 -91 93 -124l159 -54q95 -32 147 -92q53 -59 53 -150q0 -204 -208 -260q226 -70 226 -261q0 -137 -112 -223q-111 -86 -316 -86 q-140 0 -244 47v177q110 -70 272 -70q86 0 142 42t56 114q0 56 -41 89q-40 34 -132 66l-135 42q-194 62 -194 231zM369 739q0 -114 170 -160q168 57 168 179q0 113 -174 160q-164 -54 -164 -179z" />
<glyph unicode="&#xa8;" horiz-adv-x="569" d="M0 1264v209h189v-209h-189zM289 1216zM381 1264v209h189v-209h-189z" />
<glyph unicode="&#xa9;" horiz-adv-x="1638" d="M64 747q0 320 226 546q227 227 548 227q320 0 546 -227q227 -227 227 -547q0 -318 -225 -546q-225 -227 -542 -227q-320 0 -550 228t-230 546zM155 752q0 -280 197 -484q198 -204 491 -204q282 0 481 206q196 199 196 482q0 282 -203 479q-203 198 -480 198 q-280 0 -481 -199q-201 -198 -201 -478zM491 729q0 204 82 328q95 139 271 139q151 0 232 -95q60 -70 60 -161h-120q-19 158 -174 158q-231 0 -231 -372q0 -344 232 -344q149 0 170 142h125q-6 -94 -81 -163q-87 -77 -225 -77q-179 0 -267 140q-74 119 -74 305z" />
<glyph unicode="&#xaa;" horiz-adv-x="684" d="M47 1050q0 101 85 160t261 59q23 0 56 -2q34 -1 39 -3q0 105 -18 130q-38 47 -119 47q-120 0 -127 -89h-137q12 176 263 176q122 0 190 -45q69 -44 69 -122v-334q0 -100 9 -138h-115q-13 55 -13 92q-33 -58 -88 -86q-55 -27 -123 -27q-100 0 -166 49t-66 133zM177 1061 q0 -106 137 -106q82 0 128 46q46 47 46 176q-45 5 -81 5q-230 0 -230 -121z" />
<glyph unicode="&#xab;" d="M184 501l221 -400h163l-192 400l192 400h-163zM584 501l221 -400h163l-192 400l192 400h-163z" />
<glyph unicode="&#xac;" horiz-adv-x="1196" d="M80 646v162h1040v-578h-162v416h-878z" />
<glyph unicode="&#xad;" horiz-adv-x="682" d="M80 458v157h512v-157h-512z" />
<glyph unicode="&#xae;" horiz-adv-x="1638" d="M64 747q0 320 226 546q227 227 548 227q320 0 546 -227q227 -227 227 -547q0 -318 -225 -546q-225 -227 -542 -227q-320 0 -550 228t-230 546zM155 752q0 -280 197 -484q198 -204 491 -204q282 0 479 202q198 203 198 486q0 282 -203 479q-203 198 -480 198 q-280 0 -481 -199q-201 -198 -201 -478zM555 330v828h299q282 0 282 -219q0 -72 -49 -124q-48 -51 -107 -64q59 -15 87 -45q29 -29 39 -99q10 -77 20 -151q11 -74 32 -126h-120q-15 41 -47 255q-13 78 -53 99q-40 22 -140 22h-125v-376h-118zM673 804h203q142 0 142 127 q0 129 -145 129h-200v-256z" />
<glyph unicode="&#xaf;" horiz-adv-x="569" d="M0 1312v108h560v-108h-560zM298 1216z" />
<glyph unicode="&#xb0;" horiz-adv-x="819" d="M96 1134q0 135 90 227q91 93 230 93q133 0 224 -94q92 -94 92 -226q0 -130 -92 -223q-91 -92 -224 -92t-227 91q-93 91 -93 224zM236 1138q0 -76 51 -128q52 -52 128 -52q73 0 125 52t52 128q0 73 -52 125t-125 52q-76 0 -128 -52q-51 -52 -51 -125z" />
<glyph unicode="&#xb1;" horiz-adv-x="1196" d="M80 -19v160h1061v-160h-1061zM80 557v160h448v336h165v-336h448v-160h-448v-336h-165v336h-448z" />
<glyph unicode="&#xb2;" horiz-adv-x="682" d="M48 576v113l234 221q207 196 207 303q0 69 -33 106t-111 37q-148 0 -148 -142h-135q0 106 75 173q76 67 206 67q129 0 205 -68q76 -67 76 -185q0 -93 -95 -200q-94 -107 -186 -192l-146 -135h429v-98h-578z" />
<glyph unicode="&#xb3;" horiz-adv-x="682" d="M22 789h135q0 -142 171 -142q77 0 129 41t52 117q0 163 -214 163h-49v98h30q101 0 160 35q59 36 59 117q0 71 -41 104q-40 34 -117 34q-154 0 -166 -142h-133q0 105 79 172q79 68 210 68q144 0 223 -66q80 -66 80 -170q0 -75 -50 -130q-49 -55 -135 -71q87 -13 143 -69 q56 -55 56 -141q0 -109 -90 -184q-89 -74 -219 -74q-156 0 -235 66q-78 67 -78 174z" />
<glyph unicode="&#xb4;" horiz-adv-x="569" d="M160 1216l172 288h212l-251 -288h-133zM277 1216z" />
<glyph unicode="&#xb5;" horiz-adv-x="1251" d="M182 -432v1456h167v-519q0 -245 80 -318q80 -72 174 -72q107 0 187 83q80 84 80 318v508h167v-896v-128h-152v142q-95 -169 -285 -169q-150 0 -251 129v-534h-167z" />
<glyph unicode="&#xb6;" horiz-adv-x="1100" d="M-16 989q0 215 138 349q139 134 389 134h561v-132h-110v-1692h-161v1692h-240v-1692h-161v880q-199 14 -308 138q-108 124 -108 323z" />
<glyph unicode="&#xb7;" horiz-adv-x="569" d="M165 475v245h227v-245h-227z" />
<glyph unicode="&#xb8;" horiz-adv-x="569" d="M48 -391l41 73q52 -24 141 -24q110 0 110 86q0 82 -104 82q-51 0 -76 -20l-32 34l130 176h85l-91 -122q41 10 83 10q72 0 116 -41q45 -40 45 -106q0 -77 -64 -132q-63 -55 -192 -55q-114 0 -192 39zM293 0z" />
<glyph unicode="&#xb9;" horiz-adv-x="682" d="M128 1184v123q132 64 216 133h119v-864h-127v731q-94 -72 -208 -123z" />
<glyph unicode="&#xba;" horiz-adv-x="752" d="M32 1195q0 143 86 238t256 95q163 0 247 -91q85 -90 85 -234q0 -155 -93 -245q-92 -90 -249 -90q-148 0 -240 85q-92 86 -92 242zM162 1196q0 -117 60 -179t149 -62q94 0 149 66q56 66 56 186q0 116 -53 175q-52 59 -144 59q-97 0 -157 -64q-60 -63 -60 -181z" />
<glyph unicode="&#xbb;" d="M160 101l192 400l-192 400h163l221 -400l-221 -400h-163zM560 101l192 400l-192 400h163l221 -400l-221 -400h-163z" />
<glyph unicode="&#xbc;" horiz-adv-x="1708" d="M58 1184v123q132 64 216 133h119v-864h-127v731q-94 -72 -208 -123zM291 -61l878 1528h130l-874 -1528h-134zM963 183v150l401 534h143v-586h135v-98h-135v-189h-127v189h-417zM1064 281h316v447z" />
<glyph unicode="&#xbd;" horiz-adv-x="1708" d="M-3 1184v123q132 64 216 133h119v-864h-127v731q-94 -72 -208 -123zM230 -59l878 1528h130l-874 -1528h-134zM1013 -6v113l234 221q207 196 207 303q0 69 -33 106t-111 37q-148 0 -148 -142h-135q0 106 75 173q76 67 206 67q129 0 205 -68q76 -67 76 -185q0 -93 -95 -200 q-94 -107 -186 -192l-146 -135h429v-98h-578z" />
<glyph unicode="&#xbe;" horiz-adv-x="1708" d="M83 789h135q0 -142 171 -142q77 0 129 41t52 117q0 163 -214 163h-49v98h30q101 0 160 35q59 36 59 117q0 71 -41 104q-40 34 -117 34q-154 0 -166 -142h-133q0 105 79 172q79 68 210 68q144 0 223 -66q80 -66 80 -170q0 -75 -50 -130q-49 -55 -135 -71q87 -13 143 -69 q56 -55 56 -141q0 -109 -90 -184q-89 -74 -219 -74q-156 0 -235 66q-78 67 -78 174zM414 -59l878 1528h130l-874 -1528h-134zM1047 183v150l401 534h143v-586h135v-98h-135v-189h-127v189h-417zM1148 281h316v447z" />
<glyph unicode="&#xbf;" horiz-adv-x="1024" d="M140 -109q0 104 44 175t171 203l122 126q36 40 36 85v216h170v-232q0 -74 -61 -144l-97 -104q-88 -98 -130 -162q-42 -65 -42 -142q0 -214 269 -214q155 0 286 58v-189q-129 -42 -288 -42q-243 0 -361 105q-119 104 -119 261zM492 824v204h209v-204h-209z" />
<glyph unicode="&#xc0;" horiz-adv-x="1479" d="M0 1503zM19 0l608 1472h218l608 -1472h-224l-163 384h-681l-155 -384h-211zM450 1871h233l167 -288h-127zM453 558h545l-272 713zM747 1583zM747 1583zM1403 0z" />
<glyph unicode="&#xc1;" horiz-adv-x="1479" d="M0 1503zM19 0l608 1472h218l608 -1472h-224l-163 384h-681l-155 -384h-211zM453 558h545l-272 713zM630 1583l172 288h212l-251 -288h-133zM747 1583zM747 1583zM1403 0z" />
<glyph unicode="&#xc2;" horiz-adv-x="1479" d="M0 1503zM19 0l608 1472h218l608 -1472h-224l-163 384h-681l-155 -384h-211zM440 1583l224 304h186l208 -304h-177l-130 202l-152 -202h-159zM453 558h545l-272 713zM747 1583zM747 1583zM1403 0z" />
<glyph unicode="&#xc3;" horiz-adv-x="1479" d="M0 1503zM19 0l608 1472h218l608 -1472h-224l-163 384h-681l-155 -384h-211zM436 1615q4 81 49 140q46 60 126 60q39 0 121 -25q82 -24 114 -24q65 0 73 75h85q0 -111 -52 -159q-51 -47 -121 -47q-44 0 -131 24q-86 25 -100 25q-64 0 -76 -69h-88zM453 558h545l-272 713z M747 1583zM747 1583zM1403 0z" />
<glyph unicode="&#xc4;" horiz-adv-x="1479" d="M0 1503zM19 0l608 1472h218l608 -1472h-224l-163 384h-681l-155 -384h-211zM453 558h545l-272 713zM458 1631v209h189v-209h-189zM747 1583zM747 1583zM839 1631v209h189v-209h-189zM1403 0z" />
<glyph unicode="&#xc5;" horiz-adv-x="1479" d="M0 1503zM19 0l608 1472h218l608 -1472h-224l-163 384h-681l-155 -384h-211zM453 558h545l-272 713zM544 1736q0 84 58 142q59 59 143 59t142 -59q59 -58 59 -142t-59 -143q-58 -58 -142 -58t-143 58q-58 59 -58 143zM626 1736q0 -50 34 -85q35 -34 85 -34q49 0 84 34 q35 35 35 85q0 49 -35 84t-84 35q-50 0 -85 -35q-34 -35 -34 -84zM747 1583zM747 1583zM1403 0z" />
<glyph unicode="&#xc6;" horiz-adv-x="2048" d="M3 0l864 1472h1066v-174h-765l78 -457h658v-174h-625l84 -493h592v-174h-768l-70 407h-658l-232 -407h-224zM563 581h524l-118 736z" />
<glyph unicode="&#xc7;" horiz-adv-x="1366" d="M112 724q0 343 164 561q165 218 485 218q243 0 386 -123t143 -293h-218q-36 242 -322 242q-209 0 -315 -162q-105 -161 -105 -450q0 -574 426 -574q276 0 316 242h218q-11 -165 -152 -291q-140 -125 -400 -125q-294 0 -460 196t-166 559zM511 -391l41 73q52 -24 141 -24 q110 0 110 86q0 82 -104 82q-51 0 -76 -20l-32 34l130 176h85l-91 -122q41 10 83 10q72 0 116 -41q45 -40 45 -106q0 -77 -64 -132q-63 -55 -192 -55q-114 0 -192 39zM756 0zM756 0zM765 1583z" />
<glyph unicode="&#xc8;" horiz-adv-x="1251" d="M0 1503zM157 0v1472h925v-174h-720v-457h685v-174h-685v-493h736v-174h-941zM369 1871h233l167 -288h-127zM666 1583zM666 1583zM1024 0z" />
<glyph unicode="&#xc9;" horiz-adv-x="1251" d="M0 1503zM157 0v1472h925v-174h-720v-457h685v-174h-685v-493h736v-174h-941zM549 1583l172 288h212l-251 -288h-133zM666 1583zM666 1583zM1024 0z" />
<glyph unicode="&#xca;" horiz-adv-x="1251" d="M0 1503zM157 0v1472h925v-174h-720v-457h685v-174h-685v-493h736v-174h-941zM359 1583l224 304h186l208 -304h-177l-130 202l-152 -202h-159zM666 1583zM666 1583zM1024 0z" />
<glyph unicode="&#xcb;" horiz-adv-x="1251" d="M0 1503zM157 0v1472h925v-174h-720v-457h685v-174h-685v-493h736v-174h-941zM377 1631v209h189v-209h-189zM666 1583zM666 1583zM758 1631v209h189v-209h-189zM1024 0z" />
<glyph unicode="&#xcc;" horiz-adv-x="569" d="M-13 1871h233l167 -288h-127zM0 1503zM179 0v1472h205v-1472h-205zM284 1583zM284 1583zM326 0z" />
<glyph unicode="&#xcd;" horiz-adv-x="569" d="M0 1503zM167 1583l172 288h212l-251 -288h-133zM179 0v1472h205v-1472h-205zM284 1583zM284 1583zM326 0z" />
<glyph unicode="&#xce;" horiz-adv-x="569" d="M-23 1583l224 304h186l208 -304h-177l-130 202l-152 -202h-159zM0 1503zM179 0v1472h205v-1472h-205zM284 1583zM284 1583zM326 0z" />
<glyph unicode="&#xcf;" horiz-adv-x="569" d="M-5 1631v209h189v-209h-189zM0 1503zM179 0v1472h205v-1472h-205zM284 1583zM284 1583zM326 0zM376 1631v209h189v-209h-189z" />
<glyph unicode="&#xd0;" horiz-adv-x="1479" d="M35 752v125h144v595h507q361 0 533 -206q173 -206 173 -547q0 -315 -158 -517t-557 -202h-498v752h-144zM384 174h253q291 0 414 152t123 397q0 265 -120 417q-119 153 -374 158h-24h-272v-421h400v-125h-400v-578z" />
<glyph unicode="&#xd1;" horiz-adv-x="1593" d="M0 1503zM195 0v1472h285l723 -1219v1219h189v-1472h-262l-746 1242v-1242h-189zM515 1615q4 81 49 140q46 60 126 60q39 0 121 -25q82 -24 114 -24q65 0 73 75h85q0 -111 -52 -159q-51 -47 -121 -47q-44 0 -131 24q-86 25 -100 25q-64 0 -76 -69h-88zM812 0zM826 1583z M826 1583z" />
<glyph unicode="&#xd2;" horiz-adv-x="1593" d="M122 736q0 356 182 561q183 206 506 206q317 0 491 -200q175 -199 175 -555q0 -366 -175 -573q-174 -206 -507 -206q-342 0 -507 200q-165 201 -165 567zM340 736q0 -285 116 -439q117 -154 336 -154q466 0 466 607q0 579 -448 579q-470 0 -470 -593zM528 1871h233 l167 -288h-127zM825 1583zM825 1583z" />
<glyph unicode="&#xd3;" horiz-adv-x="1593" d="M122 736q0 356 182 561q183 206 506 206q317 0 491 -200q175 -199 175 -555q0 -366 -175 -573q-174 -206 -507 -206q-342 0 -507 200q-165 201 -165 567zM340 736q0 -285 116 -439q117 -154 336 -154q466 0 466 607q0 579 -448 579q-470 0 -470 -593zM708 1583l172 288 h212l-251 -288h-133zM825 1583zM825 1583z" />
<glyph unicode="&#xd4;" horiz-adv-x="1593" d="M122 736q0 356 182 561q183 206 506 206q317 0 491 -200q175 -199 175 -555q0 -366 -175 -573q-174 -206 -507 -206q-342 0 -507 200q-165 201 -165 567zM340 736q0 -285 116 -439q117 -154 336 -154q466 0 466 607q0 579 -448 579q-470 0 -470 -593zM518 1583l224 304 h186l208 -304h-177l-130 202l-152 -202h-159zM825 1583zM825 1583z" />
<glyph unicode="&#xd5;" horiz-adv-x="1593" d="M122 736q0 356 182 561q183 206 506 206q317 0 491 -200q175 -199 175 -555q0 -366 -175 -573q-174 -206 -507 -206q-342 0 -507 200q-165 201 -165 567zM340 736q0 -285 116 -439q117 -154 336 -154q466 0 466 607q0 579 -448 579q-470 0 -470 -593zM514 1615 q4 81 49 140q46 60 126 60q39 0 121 -25q82 -24 114 -24q65 0 73 75h85q0 -111 -52 -159q-51 -47 -121 -47q-44 0 -131 24q-86 25 -100 25q-64 0 -76 -69h-88zM825 1583zM825 1583z" />
<glyph unicode="&#xd6;" horiz-adv-x="1593" d="M122 736q0 356 182 561q183 206 506 206q317 0 491 -200q175 -199 175 -555q0 -366 -175 -573q-174 -206 -507 -206q-342 0 -507 200q-165 201 -165 567zM340 736q0 -285 116 -439q117 -154 336 -154q466 0 466 607q0 579 -448 579q-470 0 -470 -593zM536 1631v209h189 v-209h-189zM825 1583zM825 1583zM917 1631v209h189v-209h-189z" />
<glyph unicode="&#xd7;" horiz-adv-x="1196" d="M96 132l379 379l-379 379l117 117l379 -379l379 379l117 -117l-379 -379l379 -379l-117 -117l-379 379l-379 -379z" />
<glyph unicode="&#xd8;" horiz-adv-x="1593" d="M122 733q0 357 183 563q184 207 508 207q210 0 361 -87l136 207h128l-179 -275q217 -199 217 -598q0 -367 -175 -574t-508 -207q-223 0 -372 89l-152 -233h-128l192 297q-211 193 -211 611zM340 735q0 -283 111 -433l621 957q-102 70 -257 70q-475 0 -475 -594zM529 223 q104 -80 263 -80q466 0 466 609q0 281 -110 426z" />
<glyph unicode="&#xd9;" horiz-adv-x="1593" d="M0 1503zM192 532v36v904h205v-929q0 -213 111 -307q112 -93 297 -93q189 0 292 95t103 326v908h205v-922q0 -271 -162 -426t-430 -155q-284 0 -453 142q-168 143 -168 421zM492 1871h233l167 -288h-127zM789 1583zM789 1583zM969 0z" />
<glyph unicode="&#xda;" horiz-adv-x="1593" d="M0 1503zM192 532v36v904h205v-929q0 -213 111 -307q112 -93 297 -93q189 0 292 95t103 326v908h205v-922q0 -271 -162 -426t-430 -155q-284 0 -453 142q-168 143 -168 421zM672 1583l172 288h212l-251 -288h-133zM789 1583zM789 1583zM969 0z" />
<glyph unicode="&#xdb;" horiz-adv-x="1593" d="M0 1503zM192 532v36v904h205v-929q0 -213 111 -307q112 -93 297 -93q189 0 292 95t103 326v908h205v-922q0 -271 -162 -426t-430 -155q-284 0 -453 142q-168 143 -168 421zM482 1583l224 304h186l208 -304h-177l-130 202l-152 -202h-159zM789 1583zM789 1583zM969 0z" />
<glyph unicode="&#xdc;" horiz-adv-x="1593" d="M0 1503zM192 532v36v904h205v-929q0 -213 111 -307q112 -93 297 -93q189 0 292 95t103 326v908h205v-922q0 -271 -162 -426t-430 -155q-284 0 -453 142q-168 143 -168 421zM500 1631v209h189v-209h-189zM789 1583zM789 1583zM881 1631v209h189v-209h-189zM969 0z" />
<glyph unicode="&#xdd;" horiz-adv-x="1366" d="M0 1503zM16 1472h253l435 -724l439 724h230l-576 -897v-575h-205v575zM572 1583l172 288h212l-251 -288h-133zM689 1583zM689 1583z" />
<glyph unicode="&#xde;" horiz-adv-x="1251" d="M179 0v1472h205v-245h309h55q211 0 323 -115q113 -114 113 -289q0 -174 -123 -295q-122 -121 -430 -121h-247v-407h-205zM384 581h257q325 0 325 247q0 225 -271 225h-311v-472z" />
<glyph unicode="&#xdf;" horiz-adv-x="1366" d="M183 0v1092q0 403 455 403q210 0 329 -79t119 -224q0 -84 -34 -132t-110 -105q-105 -79 -105 -139q0 -52 68 -99l162 -109q99 -65 139 -127q40 -61 40 -152q0 -169 -120 -263q-119 -93 -292 -93q-331 0 -331 313h189q0 -174 168 -174q86 0 136 51q51 52 51 135 q0 113 -133 197l-149 94q-127 83 -127 200q0 119 123 214q87 66 106 99q20 33 20 73q0 94 -74 141q-73 48 -171 48q-144 0 -202 -74q-58 -73 -58 -224v-1066h-199z" />
<glyph unicode="&#xe0;" d="M109 273q0 165 133 263t408 98q33 0 141 -7q0 170 -30 208q-57 77 -190 77q-195 0 -207 -165h-193q19 304 405 304q179 0 291 -71q113 -70 113 -202v-544q0 -161 16 -226h-183q-19 94 -19 157q-101 -192 -321 -192q-158 0 -261 80t-103 220zM290 1499h233l167 -288h-127z M308 297q0 -75 56 -123q56 -47 155 -47q136 0 204 78t68 284q-68 6 -125 6q-358 0 -358 -198zM587 1211zM587 1211zM941 0z" />
<glyph unicode="&#xe1;" d="M109 273q0 165 133 263t408 98q33 0 141 -7q0 170 -30 208q-57 77 -190 77q-195 0 -207 -165h-193q19 304 405 304q179 0 291 -71q113 -70 113 -202v-544q0 -161 16 -226h-183q-19 94 -19 157q-101 -192 -321 -192q-158 0 -261 80t-103 220zM308 297q0 -75 56 -123 q56 -47 155 -47q136 0 204 78t68 284q-68 6 -125 6q-358 0 -358 -198zM470 1211l172 288h212l-251 -288h-133zM587 1211zM587 1211zM941 0z" />
<glyph unicode="&#xe2;" d="M109 273q0 165 133 263t408 98q33 0 141 -7q0 170 -30 208q-57 77 -190 77q-195 0 -207 -165h-193q19 304 405 304q179 0 291 -71q113 -70 113 -202v-544q0 -161 16 -226h-183q-19 94 -19 157q-101 -192 -321 -192q-158 0 -261 80t-103 220zM280 1211l224 304h186 l208 -304h-177l-130 202l-152 -202h-159zM308 297q0 -75 56 -123q56 -47 155 -47q136 0 204 78t68 284q-68 6 -125 6q-358 0 -358 -198zM587 1211zM587 1211zM941 0z" />
<glyph unicode="&#xe3;" d="M109 273q0 165 133 263t408 98q33 0 141 -7q0 170 -30 208q-57 77 -190 77q-195 0 -207 -165h-193q19 304 405 304q179 0 291 -71q113 -70 113 -202v-544q0 -161 16 -226h-183q-19 94 -19 157q-101 -192 -321 -192q-158 0 -261 80t-103 220zM276 1243q4 81 49 140 q46 60 126 60q39 0 121 -25q82 -24 114 -24q65 0 73 75h85q0 -111 -52 -159q-51 -47 -121 -47q-44 0 -131 24q-86 25 -100 25q-64 0 -76 -69h-88zM308 297q0 -75 56 -123q56 -47 155 -47q136 0 204 78t68 284q-68 6 -125 6q-358 0 -358 -198zM587 1211zM587 1211zM941 0z " />
<glyph unicode="&#xe4;" d="M109 273q0 165 133 263t408 98q33 0 141 -7q0 170 -30 208q-57 77 -190 77q-195 0 -207 -165h-193q19 304 405 304q179 0 291 -71q113 -70 113 -202v-544q0 -161 16 -226h-183q-19 94 -19 157q-101 -192 -321 -192q-158 0 -261 80t-103 220zM298 1259v209h189v-209h-189z M308 297q0 -75 56 -123q56 -47 155 -47q136 0 204 78t68 284q-68 6 -125 6q-358 0 -358 -198zM587 1211zM587 1211zM679 1259v209h189v-209h-189zM941 0z" />
<glyph unicode="&#xe5;" d="M109 273q0 165 133 263t408 98q33 0 141 -7q0 170 -30 208q-57 77 -190 77q-195 0 -207 -165h-193q19 304 405 304q179 0 291 -71q113 -70 113 -202v-544q0 -161 16 -226h-183q-19 94 -19 157q-101 -192 -321 -192q-158 0 -261 80t-103 220zM308 297q0 -75 56 -123 q56 -47 155 -47q136 0 204 78t68 284q-68 6 -125 6q-358 0 -358 -198zM384 1364q0 84 58 142q59 59 143 59t142 -59q59 -58 59 -142t-59 -143q-58 -58 -142 -58t-143 58q-58 59 -58 143zM466 1364q0 -50 34 -85q35 -34 85 -34q49 0 84 34q35 35 35 85q0 49 -35 84t-84 35 q-50 0 -85 -35q-34 -35 -34 -84zM587 1211zM587 1211zM941 0z" />
<glyph unicode="&#xe6;" horiz-adv-x="1821" d="M102 295q0 133 90 217t236 106q88 15 267 15q110 0 74 0t53 -2q0 156 -60 218q-60 63 -187 63q-207 0 -218 -165h-199q19 304 415 304q298 0 366 -215q41 94 136 154q96 61 214 61q202 0 319 -122t117 -363v-81h-704q0 -169 73 -271t206 -102q91 0 151 54q61 55 69 159 h199q-20 -157 -125 -255q-104 -97 -284 -97q-287 0 -390 240q-92 -240 -403 -240q-187 0 -301 88t-114 234zM301 288q0 -77 63 -127q64 -49 163 -49q118 0 206 85q89 85 89 297h-167q-196 0 -275 -52q-79 -51 -79 -154zM1024 624h502q0 140 -57 214t-174 74q-114 0 -191 -76 q-76 -75 -80 -212z" />
<glyph unicode="&#xe7;" horiz-adv-x="1024" d="M93 495q0 275 132 415q132 141 331 141q196 0 299 -101q104 -100 109 -251h-199q-15 213 -203 213q-270 0 -270 -391q0 -409 262 -409q90 0 155 60q65 61 65 169h199q0 -140 -113 -254t-306 -114q-217 0 -339 133q-122 134 -122 389zM311 -391l41 73q52 -24 141 -24 q110 0 110 86q0 82 -104 82q-51 0 -76 -20l-32 34l130 176h85l-91 -122q41 10 83 10q72 0 116 -41q45 -40 45 -106q0 -77 -64 -132q-63 -55 -192 -55q-114 0 -192 39zM556 0zM556 0zM576 1211z" />
<glyph unicode="&#xe8;" d="M106 499q0 271 124 411q124 141 354 141q223 0 340 -122q117 -121 117 -351v-104h-736q0 -362 291 -362q92 0 160 54t77 159h199q-7 -152 -127 -252q-119 -100 -318 -100q-226 0 -354 130q-127 130 -127 396zM287 1499h233l167 -288h-127zM314 613h528q0 299 -252 299 q-126 0 -201 -83t-75 -216zM584 1211zM584 1211zM731 0z" />
<glyph unicode="&#xe9;" d="M106 499q0 271 124 411q124 141 354 141q223 0 340 -122q117 -121 117 -351v-104h-736q0 -362 291 -362q92 0 160 54t77 159h199q-7 -152 -127 -252q-119 -100 -318 -100q-226 0 -354 130q-127 130 -127 396zM314 613h528q0 299 -252 299q-126 0 -201 -83t-75 -216z M467 1211l172 288h212l-251 -288h-133zM584 1211zM584 1211zM731 0z" />
<glyph unicode="&#xea;" d="M106 499q0 271 124 411q124 141 354 141q223 0 340 -122q117 -121 117 -351v-104h-736q0 -362 291 -362q92 0 160 54t77 159h199q-7 -152 -127 -252q-119 -100 -318 -100q-226 0 -354 130q-127 130 -127 396zM277 1211l224 304h186l208 -304h-177l-130 202l-152 -202 h-159zM314 613h528q0 299 -252 299q-126 0 -201 -83t-75 -216zM584 1211zM584 1211zM731 0z" />
<glyph unicode="&#xeb;" d="M106 499q0 271 124 411q124 141 354 141q223 0 340 -122q117 -121 117 -351v-104h-736q0 -362 291 -362q92 0 160 54t77 159h199q-7 -152 -127 -252q-119 -100 -318 -100q-226 0 -354 130q-127 130 -127 396zM295 1259v209h189v-209h-189zM314 613h528q0 299 -252 299 q-126 0 -201 -83t-75 -216zM584 1211zM584 1211zM676 1259v209h189v-209h-189zM731 0z" />
<glyph unicode="&#xec;" horiz-adv-x="569" d="M-5 1499h233l167 -288h-127zM0 1051zM183 0v1024h199v-1024h-199zM292 1211zM292 1211z" />
<glyph unicode="&#xed;" horiz-adv-x="569" d="M0 1051zM175 1211l172 288h212l-251 -288h-133zM183 0v1024h199v-1024h-199zM292 1211zM292 1211z" />
<glyph unicode="&#xee;" horiz-adv-x="569" d="M-15 1211l224 304h186l208 -304h-177l-130 202l-152 -202h-159zM0 1051zM183 0v1024h199v-1024h-199zM292 1211zM292 1211z" />
<glyph unicode="&#xef;" horiz-adv-x="569" d="M0 1051zM3 1259v209h189v-209h-189zM183 0v1024h199v-1024h-199zM292 1211zM292 1211zM384 1259v209h189v-209h-189z" />
<glyph unicode="&#xf0;" horiz-adv-x="1251" d="M112 508q0 228 128 377q128 150 359 150q86 0 156 -27q70 -26 146 -114q-41 82 -149 188q-107 107 -225 184l-199 -119l-75 72l177 109q-69 43 -174 102l127 122q6 -2 211 -124l201 117l75 -74l-184 -109q457 -334 457 -798q0 -284 -142 -438q-141 -153 -386 -153 q-224 0 -364 138q-139 139 -139 397zM311 509q0 -197 92 -297q93 -100 227 -100q144 0 229 106t85 307q0 188 -88 285t-221 97q-141 0 -233 -99q-91 -99 -91 -299z" />
<glyph unicode="&#xf1;" horiz-adv-x="1251" d="M183 1024h193l9 -165q95 192 327 192q135 0 238 -69q139 -91 139 -280v-702h-199v663q0 115 -54 167q-72 73 -181 73q-113 0 -188 -76q-82 -83 -82 -213v-614h-199v896q0 57 -3 128zM358 1243q4 81 49 140q46 60 126 60q39 0 121 -25q82 -24 114 -24q65 0 73 75h85 q0 -111 -52 -159q-51 -47 -121 -47q-44 0 -131 24q-86 25 -100 25q-64 0 -76 -69h-88zM659 0zM669 1211zM669 1211z" />
<glyph unicode="&#xf2;" horiz-adv-x="1251" d="M106 508q0 252 139 397q139 146 385 146q235 0 371 -141q136 -140 136 -390t-142 -399q-141 -148 -382 -148q-230 0 -369 142q-138 142 -138 393zM305 512q0 -190 86 -295q87 -105 233 -105q132 0 223 103q91 104 91 316q0 183 -85 282t-219 99q-141 0 -235 -100 t-94 -300zM333 1499h233l167 -288h-127zM630 1211zM630 1211z" />
<glyph unicode="&#xf3;" horiz-adv-x="1251" d="M106 508q0 252 139 397q139 146 385 146q235 0 371 -141q136 -140 136 -390t-142 -399q-141 -148 -382 -148q-230 0 -369 142q-138 142 -138 393zM305 512q0 -190 86 -295q87 -105 233 -105q132 0 223 103q91 104 91 316q0 183 -85 282t-219 99q-141 0 -235 -100 t-94 -300zM513 1211l172 288h212l-251 -288h-133zM630 1211zM630 1211z" />
<glyph unicode="&#xf4;" horiz-adv-x="1251" d="M106 508q0 252 139 397q139 146 385 146q235 0 371 -141q136 -140 136 -390t-142 -399q-141 -148 -382 -148q-230 0 -369 142q-138 142 -138 393zM305 512q0 -190 86 -295q87 -105 233 -105q132 0 223 103q91 104 91 316q0 183 -85 282t-219 99q-141 0 -235 -100 t-94 -300zM323 1211l224 304h186l208 -304h-177l-130 202l-152 -202h-159zM630 1211zM630 1211z" />
<glyph unicode="&#xf5;" horiz-adv-x="1251" d="M106 508q0 252 139 397q139 146 385 146q235 0 371 -141q136 -140 136 -390t-142 -399q-141 -148 -382 -148q-230 0 -369 142q-138 142 -138 393zM305 512q0 -190 86 -295q87 -105 233 -105q132 0 223 103q91 104 91 316q0 183 -85 282t-219 99q-141 0 -235 -100 t-94 -300zM319 1243q4 81 49 140q46 60 126 60q39 0 121 -25q82 -24 114 -24q65 0 73 75h85q0 -111 -52 -159q-51 -47 -121 -47q-44 0 -131 24q-86 25 -100 25q-64 0 -76 -69h-88zM630 1211zM630 1211z" />
<glyph unicode="&#xf6;" horiz-adv-x="1251" d="M106 508q0 252 139 397q139 146 385 146q235 0 371 -141q136 -140 136 -390t-142 -399q-141 -148 -382 -148q-230 0 -369 142q-138 142 -138 393zM305 512q0 -190 86 -295q87 -105 233 -105q132 0 223 103q91 104 91 316q0 183 -85 282t-219 99q-141 0 -235 -100 t-94 -300zM341 1259v209h189v-209h-189zM630 1211zM630 1211zM722 1259v209h189v-209h-189z" />
<glyph unicode="&#xf7;" horiz-adv-x="1196" d="M75 438v160h1037v-160h-1037zM491 22v240h205v-240h-205zM491 774v240h205v-240h-205z" />
<glyph unicode="&#xf8;" horiz-adv-x="1251" d="M106 507q0 252 137 398q138 146 390 146q127 0 226 -43l123 203h124l-154 -254q185 -141 185 -434q0 -252 -141 -401q-140 -149 -380 -149q-131 0 -233 45l-134 -221h-121l163 274q-185 141 -185 436zM305 512q0 -183 81 -286l392 653q-64 33 -145 33q-154 0 -241 -111 q-87 -110 -87 -289zM466 156q68 -44 159 -44q133 0 223 103t90 313q0 172 -80 274z" />
<glyph unicode="&#xf9;" horiz-adv-x="1251" d="M0 1051zM158 330v694h199v-653q0 -144 54 -197t159 -53q130 0 211 74q81 75 81 208v621h199v-896q0 -57 3 -128h-196l-9 165q-95 -192 -326 -192q-176 0 -276 90q-99 91 -99 267zM318 1499h233l167 -288h-127zM615 1211zM615 1211zM1011 0z" />
<glyph unicode="&#xfa;" horiz-adv-x="1251" d="M0 1051zM158 330v694h199v-653q0 -144 54 -197t159 -53q130 0 211 74q81 75 81 208v621h199v-896q0 -57 3 -128h-196l-9 165q-95 -192 -326 -192q-176 0 -276 90q-99 91 -99 267zM498 1211l172 288h212l-251 -288h-133zM615 1211zM615 1211zM1011 0z" />
<glyph unicode="&#xfb;" horiz-adv-x="1251" d="M0 1051zM158 330v694h199v-653q0 -144 54 -197t159 -53q130 0 211 74q81 75 81 208v621h199v-896q0 -57 3 -128h-196l-9 165q-95 -192 -326 -192q-176 0 -276 90q-99 91 -99 267zM308 1211l224 304h186l208 -304h-177l-130 202l-152 -202h-159zM615 1211zM615 1211z M1011 0z" />
<glyph unicode="&#xfc;" horiz-adv-x="1251" d="M0 1051zM158 330v694h199v-653q0 -144 54 -197t159 -53q130 0 211 74q81 75 81 208v621h199v-896q0 -57 3 -128h-196l-9 165q-95 -192 -326 -192q-176 0 -276 90q-99 91 -99 267zM326 1259v209h189v-209h-189zM615 1211zM615 1211zM707 1259v209h189v-209h-189zM1011 0z " />
<glyph unicode="&#xfd;" d="M0 1051zM25 1024h214l329 -791l315 791h214l-443 -1000l-157 -406h-199l155 390zM448 1211l172 288h212l-251 -288h-133zM565 1211zM565 1211z" />
<glyph unicode="&#xfe;" horiz-adv-x="1251" d="M174 -400v1872h199v-613q114 192 346 192q195 0 316 -136q122 -136 122 -395q0 -253 -129 -400q-128 -147 -340 -147q-110 0 -195 44q-84 45 -120 116v-533h-199zM364 493q0 -381 288 -381q142 0 224 107t82 318q0 375 -285 375q-309 0 -309 -419z" />
<glyph unicode="&#xff;" d="M0 1051zM25 1024h214l329 -791l315 791h214l-443 -1000l-157 -406h-199l155 390zM276 1259v209h189v-209h-189zM565 1211zM565 1211zM657 1259v209h189v-209h-189z" />
<glyph unicode="&#x152;" horiz-adv-x="2048" d="M90 730q0 373 197 557q198 185 521 185h229h900v-174h-698v-457h666v-174h-666v-493h704v-174h-1187q-305 0 -486 202q-180 202 -180 528zM308 732q0 -269 125 -414q125 -144 428 -144q53 0 173 4v1111q-190 9 -221 9q-237 0 -371 -143t-134 -423z" />
<glyph unicode="&#x153;" horiz-adv-x="1933" d="M106 512q0 235 144 387q145 152 371 152q280 0 395 -256q33 107 134 181q102 75 256 75q192 0 313 -118q122 -117 122 -401v-58h-720q0 -362 286 -362q72 0 140 55q68 56 79 158h199q-10 -149 -124 -251q-113 -101 -297 -101q-137 0 -238 64t-151 176q-51 -116 -160 -178 t-245 -62q-219 0 -362 149q-142 149 -142 390zM305 518q0 -167 75 -287q75 -119 231 -119q132 0 221 106q90 106 90 316q0 178 -83 278t-218 100q-142 0 -229 -101t-87 -293zM1127 613h515q0 149 -58 224t-177 75q-127 0 -202 -79q-74 -79 -78 -220z" />
<glyph unicode="&#x178;" horiz-adv-x="1366" d="M0 1503zM16 1472h253l435 -724l439 724h230l-576 -897v-575h-205v575zM400 1631v209h189v-209h-189zM689 1583zM689 1583zM781 1631v209h189v-209h-189z" />
<glyph unicode="&#x2c6;" horiz-adv-x="569" d="M-32 1216l224 304h186l208 -304h-177l-130 202l-152 -202h-159zM275 1216z" />
<glyph unicode="&#x2dc;" horiz-adv-x="569" d="M0 1248q4 81 49 140q46 60 126 60q39 0 121 -25q82 -24 114 -24q65 0 73 75h85q0 -111 -52 -159q-51 -47 -121 -47q-44 0 -131 24q-86 25 -100 25q-64 0 -76 -69h-88zM311 1216z" />
<glyph unicode="&#x2000;" horiz-adv-x="968" />
<glyph unicode="&#x2001;" horiz-adv-x="1937" />
<glyph unicode="&#x2002;" horiz-adv-x="968" />
<glyph unicode="&#x2003;" horiz-adv-x="1937" />
<glyph unicode="&#x2004;" horiz-adv-x="645" />
<glyph unicode="&#x2005;" horiz-adv-x="484" />
<glyph unicode="&#x2006;" horiz-adv-x="322" />
<glyph unicode="&#x2007;" horiz-adv-x="322" />
<glyph unicode="&#x2008;" horiz-adv-x="242" />
<glyph unicode="&#x2009;" horiz-adv-x="387" />
<glyph unicode="&#x200a;" horiz-adv-x="107" />
<glyph unicode="&#x2010;" horiz-adv-x="682" d="M80 458v157h512v-157h-512z" />
<glyph unicode="&#x2011;" horiz-adv-x="682" d="M80 458v157h512v-157h-512z" />
<glyph unicode="&#x2012;" horiz-adv-x="682" d="M80 458v157h512v-157h-512z" />
<glyph unicode="&#x2013;" horiz-adv-x="1024" d="M0 469v146h1024v-146h-1024z" />
<glyph unicode="&#x2014;" horiz-adv-x="2048" d="M0 469v146h2048v-146h-2048z" />
<glyph unicode="&#x2018;" horiz-adv-x="569" d="M97 976l230 496h138l-130 -496h-238z" />
<glyph unicode="&#x2019;" horiz-adv-x="569" d="M96 976l130 496h238l-230 -496h-138z" />
<glyph unicode="&#x201a;" horiz-adv-x="569" d="M98 -275l130 496h238l-230 -496h-138z" />
<glyph unicode="&#x201c;" d="M179 976l230 496h138l-130 -496h-238zM563 976l230 496h138l-130 -496h-238z" />
<glyph unicode="&#x201d;" d="M202 976l130 496h238l-230 -496h-138zM586 976l130 496h238l-230 -496h-138z" />
<glyph unicode="&#x201e;" d="M206 -277l130 496h238l-230 -496h-138zM590 -277l130 496h238l-230 -496h-138z" />
<glyph unicode="&#x2022;" horiz-adv-x="717" d="M0 743q0 150 107 259q108 109 261 109q150 0 259 -109t109 -259q0 -153 -109 -261q-109 -107 -259 -107q-153 0 -261 107q-107 108 -107 261z" />
<glyph unicode="&#x2026;" horiz-adv-x="2048" d="M259 0v246h227v-246h-227zM915 0v246h227v-246h-227zM1571 0v246h227v-246h-227z" />
<glyph unicode="&#x202f;" horiz-adv-x="387" />
<glyph unicode="&#x2039;" horiz-adv-x="569" d="M107 501l221 -400h163l-192 400l192 400h-163z" />
<glyph unicode="&#x203a;" horiz-adv-x="569" d="M60 101l192 400l-192 400h163l221 -400l-221 -400h-163z" />
<glyph unicode="&#x205f;" horiz-adv-x="484" />
<glyph unicode="&#x20ac;" d="M6 534l37 134h111l-2 39q0 38 2 89h-148l37 134h125q43 249 174 386q132 138 356 138q191 0 318 -109q128 -109 128 -289h-183q-42 240 -258 240q-135 0 -221 -95q-86 -94 -116 -271h519l-34 -134h-492q-2 -24 -2 -69q0 -31 2 -59h446l-37 -134h-395q50 -401 324 -401 q224 0 261 240h183q0 -177 -131 -290q-130 -113 -314 -113q-469 0 -528 564h-162z" />
<glyph unicode="&#x2122;" horiz-adv-x="2048" d="M189 1386v86h513v-86h-211v-650h-91v650h-211zM834 736v736h171l204 -607l195 607h161v-736h-94v661l-226 -661h-91l-226 658v-658h-94z" />
<glyph unicode="&#xe000;" horiz-adv-x="1025" d="M0 0v1025h1025v-1025h-1025z" />
<glyph unicode="&#xfb01;" horiz-adv-x="1251" d="M44 885v139h192v161q0 164 77 237q78 73 241 73q77 0 153 -14v-153q-11 2 -50 3q-38 1 -56 1q-97 0 -132 -30q-34 -29 -34 -100v-178h240v-139h-240v-885h-199v885h-192zM838 1264v211h243v-211h-243zM860 0v1024h199v-1024h-199z" />
<glyph unicode="&#xfb02;" horiz-adv-x="1251" d="M44 885v139h192v161q0 164 77 237q78 73 241 73q81 0 153 -14v-153q-11 2 -50 3q-38 1 -56 1q-97 0 -132 -30q-34 -29 -34 -100v-178h240v-139h-240v-885h-199v885h-192zM860 0v1472h199v-1472h-199z" />
</font>
</defs>
</svg>
